<?xml version="1.0" encoding="utf-8"?>
<!-- Generator: Adobe Illustrator 19.0.0, SVG Export Plug-In . SVG Version: 6.00 Build 0)  -->
<svg version="1.1" id="Layer_1" xmlns="http://www.w3.org/2000/svg" xmlns:xlink="http://www.w3.org/1999/xlink" x="0px" y="0px"
	 viewBox="0 0 53.3 53.3" enable-background="new 0 0 53.3 53.3" xml:space="preserve">
<path id="XMLID_951_" d="M-48.3-43.9c-7.1,0-13.5,2.9-18.1,7.5c-4.6,4.6-7.5,11-7.5,18.1v0c0,14.1,11.5,25.6,25.6,25.6h0
	c14.1,0,25.6-11.5,25.6-25.6v0C-22.7-32.4-34.2-43.9-48.3-43.9z M-34.2-8.2l-4.3,0.1c0,0-0.9,0.2-2.2-0.6c-1.6-1.1-3.1-4-4.3-3.6
	c-1.2,0.4-1.2,3-1.2,3s0,0.6-0.3,0.9c-0.3,0.3-0.9,0.4-0.9,0.4h-1.9c0,0-4.3,0.3-8.1-3.7c-4.1-4.3-7.8-12.8-7.8-12.8s-0.2-0.6,0-0.8
	c0.3-0.3,0.9-0.3,0.9-0.3l4.6,0c0,0,0.4,0.1,0.8,0.3c0.3,0.2,0.4,0.5,0.4,0.5s0.8,1.9,1.8,3.6c1.9,3.3,2.8,4.1,3.5,3.7
	c1-0.5,0.7-4.7,0.7-4.7s0-1.5-0.5-2.2c-0.4-0.5-1.1-0.7-1.4-0.7c-0.3,0,0.2-0.6,0.7-0.9c0.8-0.4,2.3-0.4,4.1-0.4
	c1.4,0,1.8,0.1,2.3,0.2c1.6,0.4,1.1,1.9,1.1,5.5c0,1.1-0.2,2.8,0.6,3.3c0.4,0.2,1.2,0,3.4-3.7c1-1.8,1.8-3.8,1.8-3.8
	s0.2-0.4,0.4-0.5c0.3-0.2,0.6-0.1,0.6-0.1l4.9,0c0,0,1.5-0.2,1.7,0.5c0.3,0.7-0.6,2.3-2.5,5c-3.3,4.4-3.6,4-0.9,6.5
	c2.6,2.4,3.1,3.6,3.2,3.7C-31.9-8.4-34.2-8.2-34.2-8.2z"/>
<path id="XMLID_961_" fill="#FFFFFF" d="M173.6,83.2c-7.1,0-13.5,2.9-18.1,7.5c-4.6,4.6-7.5,11-7.5,18.1v0
	c0,14.1,11.5,25.6,25.6,25.6h0c14.1,0,25.6-11.5,25.6-25.6v0C199.2,94.7,187.8,83.2,173.6,83.2z M181.7,99.2h-2.9
	c-2.3,0-2.7,1.1-2.7,2.7v3.5h5.5l-0.7,5.5H176v14.2h-5.7v-14.2h-4.8v-5.5h4.8v-4.1c0-4.7,2.9-7.3,7.1-7.3c2,0,3.8,0.2,4.3,0.2V99.2z
	"/>
<path id="XMLID_940_" fill="#FFFFFF" d="M116.1-73.5c-7.1,0-13.5,2.9-18.1,7.5c-4.6,4.6-7.5,11-7.5,18.1v0
	c0,14.1,11.5,25.6,25.6,25.6h0c14.1,0,25.6-11.5,25.6-25.6v0C141.7-62.1,130.3-73.5,116.1-73.5z M128.2-53.4c0,0.3,0,0.5,0,0.8
	c0,7.6-5.8,16.4-16.4,16.4c-3.3,0-6.3-1-8.9-2.6c0.4,0.1,0.9,0.1,1.4,0.1c2.7,0,5.2-0.9,7.2-2.5c-2.5,0-4.7-1.7-5.4-4
	c0.4,0.1,0.7,0.1,1.1,0.1c0.5,0,1-0.1,1.5-0.2c-2.6-0.5-4.6-2.9-4.6-5.7V-51c0.8,0.4,1.7,0.7,2.6,0.7c-1.6-1-2.6-2.8-2.6-4.8
	c0-1,0.3-2,0.8-2.9c2.9,3.5,7.1,5.8,11.9,6c-0.1-0.4-0.1-0.9-0.1-1.3c0-3.2,2.6-5.8,5.8-5.8c1.7,0,3.2,0.7,4.2,1.8
	c1.3-0.3,2.6-0.7,3.7-1.4c-0.4,1.3-1.3,2.5-2.5,3.2c1.2-0.1,2.3-0.4,3.3-0.9C130.3-55.2,129.3-54.2,128.2-53.4z"/>
<path id="XMLID_965_" fill="#FFFFFF" d="M98.2,108c-0.1-1.3-0.3-2-0.4-2.4c-0.2-0.6-0.5-1.1-1-1.5c-0.5-0.5-0.9-0.7-1.5-1
	c-0.5-0.2-1.2-0.4-2.4-0.4c-1.4-0.1-1.8-0.1-5.3-0.1c-3.5,0-3.9,0-5.3,0.1c-1.3,0.1-2,0.3-2.4,0.4c-0.6,0.2-1.1,0.5-1.5,1
	c-0.5,0.5-0.7,0.9-1,1.5c-0.2,0.5-0.4,1.2-0.4,2.4c-0.1,1.4-0.1,1.8-0.1,5.3c0,3.5,0,3.9,0.1,5.3c0.1,1.3,0.3,2,0.4,2.4
	c0.2,0.6,0.5,1.1,1,1.5c0.5,0.5,0.9,0.8,1.5,1c0.5,0.2,1.2,0.4,2.4,0.5c1.4,0.1,1.8,0.1,5.3,0.1c3.5,0,3.9,0,5.3-0.1
	c1.3-0.1,2-0.3,2.4-0.5c0.6-0.2,1.1-0.5,1.5-1c0.5-0.5,0.8-0.9,1-1.5c0.2-0.5,0.4-1.2,0.4-2.4c0.1-1.4,0.1-1.8,0.1-5.3
	C98.3,109.8,98.3,109.4,98.2,108z M87.5,120.1c-3.7,0-6.8-3-6.8-6.7c0-3.7,3-6.7,6.8-6.7c3.7,0,6.7,3,6.7,6.7
	C94.3,117.1,91.2,120.1,87.5,120.1z M94.5,107.9c-0.9,0-1.6-0.7-1.6-1.6s0.7-1.6,1.6-1.6c0.9,0,1.6,0.7,1.6,1.6
	S95.4,107.9,94.5,107.9z M87.5,109c-2.4,0-4.4,2-4.4,4.4c0,2.4,2,4.4,4.4,4.4c2.4,0,4.4-2,4.4-4.4C91.9,110.9,89.9,109,87.5,109z
	 M98.2,108c-0.1-1.3-0.3-2-0.4-2.4c-0.2-0.6-0.5-1.1-1-1.5c-0.5-0.5-0.9-0.7-1.5-1c-0.5-0.2-1.2-0.4-2.4-0.4
	c-1.4-0.1-1.8-0.1-5.3-0.1c-3.5,0-3.9,0-5.3,0.1c-1.3,0.1-2,0.3-2.4,0.4c-0.6,0.2-1.1,0.5-1.5,1c-0.5,0.5-0.7,0.9-1,1.5
	c-0.2,0.5-0.4,1.2-0.4,2.4c-0.1,1.4-0.1,1.8-0.1,5.3c0,3.5,0,3.9,0.1,5.3c0.1,1.3,0.3,2,0.4,2.4c0.2,0.6,0.5,1.1,1,1.5
	c0.5,0.5,0.9,0.8,1.5,1c0.5,0.2,1.2,0.4,2.4,0.5c1.4,0.1,1.8,0.1,5.3,0.1c3.5,0,3.9,0,5.3-0.1c1.3-0.1,2-0.3,2.4-0.5
	c0.6-0.2,1.1-0.5,1.5-1c0.5-0.5,0.8-0.9,1-1.5c0.2-0.5,0.4-1.2,0.4-2.4c0.1-1.4,0.1-1.8,0.1-5.3C98.3,109.8,98.3,109.4,98.2,108z
	 M87.5,120.1c-3.7,0-6.8-3-6.8-6.7c0-3.7,3-6.7,6.8-6.7c3.7,0,6.7,3,6.7,6.7C94.3,117.1,91.2,120.1,87.5,120.1z M94.5,107.9
	c-0.9,0-1.6-0.7-1.6-1.6s0.7-1.6,1.6-1.6c0.9,0,1.6,0.7,1.6,1.6S95.4,107.9,94.5,107.9z M87.5,109c-2.4,0-4.4,2-4.4,4.4
	c0,2.4,2,4.4,4.4,4.4c2.4,0,4.4-2,4.4-4.4C91.9,110.9,89.9,109,87.5,109z M87.5,87.7c-7.1,0-13.5,2.9-18.1,7.5
	c-4.6,4.6-7.5,11-7.5,18.1v0c0,14.1,11.5,25.6,25.6,25.6h0c14.1,0,25.6-11.5,25.6-25.6v0C113.1,99.2,101.7,87.7,87.5,87.7z
	 M100.6,118.8c-0.1,1.4-0.3,2.4-0.6,3.2c-0.3,0.9-0.8,1.6-1.5,2.3c-0.7,0.7-1.5,1.2-2.3,1.5c-0.8,0.3-1.8,0.5-3.2,0.6
	c-1.4,0.1-1.9,0.1-5.4,0.1c-3.6,0-4,0-5.4-0.1c-1.4-0.1-2.3-0.3-3.2-0.6c-0.9-0.3-1.6-0.8-2.3-1.5c-0.7-0.7-1.2-1.5-1.5-2.3
	c-0.3-0.8-0.5-1.8-0.6-3.2c-0.1-1.4-0.1-1.8-0.1-5.4s0-4,0.1-5.4c0.1-1.4,0.3-2.3,0.6-3.2c0.3-0.9,0.8-1.6,1.5-2.3
	c0.7-0.7,1.5-1.2,2.3-1.5c0.8-0.3,1.8-0.6,3.2-0.6c1.4-0.1,1.9-0.1,5.4-0.1c3.6,0,4,0,5.4,0.1c1.4,0.1,2.4,0.3,3.2,0.6
	c0.9,0.3,1.6,0.8,2.3,1.5c0.7,0.7,1.2,1.5,1.5,2.3c0.3,0.8,0.6,1.8,0.6,3.2c0.1,1.4,0.1,1.9,0.1,5.4S100.6,117.4,100.6,118.8z
	 M97.8,105.6c-0.2-0.6-0.5-1.1-1-1.5c-0.5-0.5-0.9-0.7-1.5-1c-0.5-0.2-1.2-0.4-2.4-0.4c-1.4-0.1-1.8-0.1-5.3-0.1
	c-3.5,0-3.9,0-5.3,0.1c-1.3,0.1-2,0.3-2.4,0.4c-0.6,0.2-1.1,0.5-1.5,1c-0.5,0.5-0.7,0.9-1,1.5c-0.2,0.5-0.4,1.2-0.4,2.4
	c-0.1,1.4-0.1,1.8-0.1,5.3c0,3.5,0,3.9,0.1,5.3c0.1,1.3,0.3,2,0.4,2.4c0.2,0.6,0.5,1.1,1,1.5c0.5,0.5,0.9,0.8,1.5,1
	c0.5,0.2,1.2,0.4,2.4,0.5c1.4,0.1,1.8,0.1,5.3,0.1c3.5,0,3.9,0,5.3-0.1c1.3-0.1,2-0.3,2.4-0.5c0.6-0.2,1.1-0.5,1.5-1
	c0.5-0.5,0.8-0.9,1-1.5c0.2-0.5,0.4-1.2,0.4-2.4c0.1-1.4,0.1-1.8,0.1-5.3c0-3.5,0-3.9-0.1-5.3C98.2,106.8,97.9,106.1,97.8,105.6z
	 M87.5,120.1c-3.7,0-6.8-3-6.8-6.7c0-3.7,3-6.7,6.8-6.7c3.7,0,6.7,3,6.7,6.7C94.3,117.1,91.2,120.1,87.5,120.1z M94.5,107.9
	c-0.9,0-1.6-0.7-1.6-1.6s0.7-1.6,1.6-1.6c0.9,0,1.6,0.7,1.6,1.6S95.4,107.9,94.5,107.9z M87.5,109c-2.4,0-4.4,2-4.4,4.4
	c0,2.4,2,4.4,4.4,4.4c2.4,0,4.4-2,4.4-4.4C91.9,110.9,89.9,109,87.5,109z"/>
<g id="XMLID_27_">
	<polygon id="XMLID_964_" fill="#FFFFFF" points="204.3,-18.3 212.3,-14.1 204.3,-9.9 	"/>
	<path id="XMLID_970_" fill="#FFFFFF" d="M207.3-39.7c-7.1,0-13.5,2.9-18.1,7.5c-4.6,4.6-7.5,11-7.5,18.1v0
		c0,14.1,11.5,25.6,25.6,25.6h0c14.1,0,25.6-11.5,25.6-25.6v0C232.9-28.2,221.5-39.7,207.3-39.7z M222.2-6.7c-0.4,1.6-1.7,2.8-3.3,3
		c-3.8,0.4-7.6,0.4-11.4,0.4c-3.8,0-7.6,0-11.4-0.4c-1.6-0.2-2.9-1.4-3.3-3c-0.5-2.3-0.5-4.8-0.5-7.2s0-4.9,0.5-7.2
		c0.4-1.6,1.7-2.8,3.3-3c3.8-0.4,7.6-0.4,11.4-0.4s7.6,0,11.4,0.4c1.6,0.2,2.9,1.4,3.3,3c0.5,2.3,0.5,4.8,0.5,7.2S222.7-9,222.2-6.7
		z"/>
</g>
<path id="XMLID_1009_" fill="#FFFFFF" d="M120.5,91.4c-4.6-4.6-11-7.5-18.1-7.5c-14.1,0-25.6,11.5-25.6,25.6
	c0,7.1,2.9,13.5,7.5,18.1c4.6,4.6,11,7.5,18.1,7.5h0c14.1,0,25.6-11.5,25.6-25.6C128,102.5,125.1,96.1,120.5,91.4z M81.7,115.7
	c0,0.1-0.1,0.2-0.2,0.2c-0.1,0-0.2-0.1-0.2-0.2l-0.3-2.4l0.3-2.4c0-0.1,0.1-0.2,0.2-0.2c0.1,0,0.2,0.1,0.2,0.2l0.4,2.4L81.7,115.7z
	 M83.3,117.1c0,0.1-0.1,0.2-0.2,0.2c-0.1,0-0.2-0.1-0.2-0.2l-0.4-3.8l0.4-3.9c0-0.1,0.1-0.2,0.2-0.2c0.1,0,0.2,0.1,0.2,0.2l0.5,3.9
	L83.3,117.1z M85.1,117.8c0,0.1-0.1,0.2-0.2,0.2c-0.1,0-0.2-0.1-0.2-0.2l-0.4-4.5l0.4-4.6c0-0.1,0.1-0.2,0.2-0.2
	c0.1,0,0.2,0.1,0.2,0.2l0.4,4.6L85.1,117.8z M86.8,117.9c0,0.1-0.1,0.3-0.3,0.3c-0.1,0-0.2-0.1-0.3-0.3l-0.4-4.6l0.4-4.7
	c0-0.1,0.1-0.3,0.3-0.3c0.1,0,0.3,0.1,0.3,0.3l0.4,4.7L86.8,117.9z M88.6,118c0,0.2-0.1,0.3-0.3,0.3c-0.1,0-0.3-0.1-0.3-0.3
	l-0.4-4.6l0.4-4.4c0-0.2,0.1-0.3,0.3-0.3c0.2,0,0.3,0.1,0.3,0.3l0.4,4.4L88.6,118z M90.4,118c0,0.2-0.2,0.3-0.3,0.3
	c-0.2,0-0.3-0.1-0.3-0.3l-0.3-4.6l0.3-7.1c0-0.2,0.1-0.3,0.3-0.3c0.2,0,0.3,0.1,0.3,0.3l0.4,7.1L90.4,118z M92.2,117.9
	c0,0.2-0.2,0.4-0.4,0.4c-0.2,0-0.4-0.2-0.4-0.4l-0.3-4.6l0.3-8.8c0-0.2,0.2-0.4,0.4-0.4c0.2,0,0.3,0.2,0.4,0.4l0.4,8.8L92.2,117.9z
	 M94,117.9c0,0.2-0.2,0.4-0.4,0.4c-0.2,0-0.4-0.2-0.4-0.4l-0.3-4.5l0.3-9.5c0-0.2,0.2-0.4,0.4-0.4s0.4,0.2,0.4,0.4l0.3,9.5L94,117.9
	z M95.8,117.9c0,0.2-0.2,0.4-0.4,0.4c-0.2,0-0.4-0.2-0.4-0.4l-0.3-4.5l0.3-9.8c0-0.3,0.2-0.4,0.4-0.4s0.4,0.2,0.4,0.4l0.3,9.8
	L95.8,117.9z M97.6,117.8c0,0.3-0.2,0.5-0.5,0.5s-0.5-0.2-0.5-0.5l-0.3-4.5l0.3-9.6c0-0.3,0.2-0.5,0.5-0.5s0.5,0.2,0.5,0.5l0.3,9.6
	L97.6,117.8z M99.5,117.8c0,0.3-0.2,0.5-0.5,0.5s-0.5-0.2-0.5-0.5l-0.2-4.5l0.2-9.3c0-0.3,0.2-0.5,0.5-0.5s0.5,0.2,0.5,0.5l0.3,9.3
	L99.5,117.8z M101.3,117.8c0,0.3-0.3,0.6-0.5,0.6c-0.3,0-0.6-0.3-0.6-0.6l-0.2-4.4l0.2-11c0-0.3,0.3-0.5,0.6-0.5
	c0.3,0,0.5,0.3,0.5,0.5l0.2,11L101.3,117.8z M103.2,117.7c0,0.3-0.3,0.6-0.6,0.6c-0.3,0-0.6-0.3-0.6-0.6l-0.2-4.4l0.2-12
	c0-0.3,0.3-0.6,0.6-0.6c0.3,0,0.6,0.3,0.6,0.6l0.3,12L103.2,117.7z M119,118.3c-0.1,0-14.8,0-14.8,0c-0.3,0-0.6-0.3-0.6-0.6v-16.9
	c0-0.3,0.1-0.5,0.5-0.6c1-0.4,2.2-0.6,3.4-0.6c4.9,0,8.9,3.8,9.4,8.6c0.6-0.3,1.3-0.4,2.1-0.4c2.9,0,5.3,2.4,5.3,5.3
	S122,118.3,119,118.3z"/>
<path id="XMLID_990_" fill="#FFFFFF" d="M45.7-71.5c-7.1,0-13.5,2.9-18.1,7.5c-4.6,4.6-7.5,11-7.5,18.1v0
	c0,14.1,11.5,25.6,25.6,25.6h0c14.1,0,25.6-11.5,25.6-25.6v0C71.3-60,59.8-71.5,45.7-71.5z M57.8-34.1c-0.4,0.8-1.4,1-2.2,0.5
	c-2-1.2-4.1-2.1-6.4-2.7c-3-0.7-6-0.9-9-0.7c-2.2,0.1-4.4,0.5-6.5,1c-1.1,0.3-2.1-0.5-2.1-1.5c0-0.8,0.5-1.4,1.4-1.6
	c0.9-0.2,1.9-0.4,2.8-0.5c2.3-0.4,4.6-0.6,7-0.6c3.9,0,7.7,0.7,11.3,2.3c1.1,0.5,2.1,1,3.1,1.6C58.1-35.9,58.3-35,57.8-34.1z
	 M60.5-40.5c-0.6,0.6-1.5,0.6-2.3,0.2c-3-1.8-6.2-2.9-9.6-3.5c-2.8-0.5-5.7-0.7-8.5-0.5c-2.4,0.1-4.7,0.5-6.9,1.2
	c-1.1,0.3-2.1-0.3-2.4-1.4c-0.3-1.1,0.3-2.1,1.3-2.5c2.4-0.7,4.8-1.2,7.3-1.3c0.9-0.1,1.9-0.1,3.2-0.2c1.3,0.1,3.1,0.2,4.8,0.4
	c4.5,0.6,8.8,1.9,12.8,4.3C61.4-43,61.6-41.5,60.5-40.5z M64.6-49.5c-0.4,1.1-1.4,1.8-2.5,1.7c-0.3,0-0.7-0.2-1-0.3
	c-2.9-1.7-6-2.7-9.3-3.3c-3.6-0.7-7.2-1-10.8-0.9c-3.1,0.1-6.1,0.5-9,1.3c-1.3,0.4-2.6-0.3-3-1.6c-0.4-1.3,0.3-2.6,1.6-3
	c1.7-0.5,3.4-0.8,5.1-1.1c2.3-0.4,4.6-0.5,7-0.5c5.3,0,10.4,0.7,15.4,2.4c1.9,0.7,3.8,1.5,5.5,2.5C64.5-51.6,64.9-50.5,64.6-49.5z"
	/>
<path id="XMLID_984_" fill="#FFFFFF" d="M64.4-149.5c-7.1,0-13.5,2.9-18.1,7.5c-4.6,4.6-7.5,11-7.5,18.1v0
	c0,14.1,11.5,25.6,25.6,25.6h0c14.1,0,25.6-11.5,25.6-25.6v0C90-138,78.6-149.5,64.4-149.5z M70-141.1c0.5,3.5-2.8,7.6-6.3,7.3
	C63.3-137,66.3-140.9,70-141.1z M76.6-117.4c-0.6,1.7-1.5,3.4-2.6,4.8c-0.4,0.6-0.9,1.2-1.4,1.7c-1,1-2.1,1.7-3.6,1.4
	c-0.6-0.1-1.3-0.3-1.9-0.6c-1.1-0.5-2.2-0.7-3.4-0.6c-0.9,0.1-1.6,0.4-2.4,0.7c-0.5,0.2-1.1,0.4-1.6,0.5c-1.1,0.2-2-0.2-2.8-0.9
	c-1.2-0.9-2-2.1-2.8-3.3c-1.3-2-2.2-4.2-2.8-6.5c-0.4-1.9-0.6-3.9-0.3-5.8c0.3-2,1.1-3.8,2.6-5.2c1.5-1.4,3.3-2.1,5.4-2.1
	c0.9,0,1.8,0.3,2.6,0.7c0.4,0.1,0.8,0.3,1.2,0.5c0.9,0.4,1.8,0.2,2.6-0.1c0.8-0.3,1.6-0.6,2.4-0.8c1.8-0.5,3.5-0.2,5.1,0.5
	c1.1,0.5,2,1.2,2.7,2.2c0,0,0.1,0.1,0.1,0.1c0,0,0,0.1,0,0.1c-0.5,0.5-1.1,0.9-1.5,1.4c-1.3,1.4-1.9,3-1.8,4.9
	c0.1,2.8,1.5,4.8,3.9,6.1C76.6-117.8,76.7-117.7,76.6-117.4z"/>
<path id="XMLID_998_" fill="#FFFFFF" d="M120.5,1c-7.1,0-13.5,2.9-18.1,7.5c-4.6,4.6-7.5,11-7.5,18.1v0c0,14.1,11.5,25.6,25.6,25.6
	h0c14.1,0,25.6-11.5,25.6-25.6v0C146.1,12.5,134.6,1,120.5,1z M104.8,36.2c-0.5,0.3-1,0.6-1.6,0.9c-0.5,0.3-0.9,0.2-1.2-0.3
	c-1.4-2.4-2.3-4.9-2.6-7.7c-0.1-0.9-0.2-1.8-0.3-2.8c0.1-2,0.4-4,0.9-6c0.2-0.8,0.5-1,1.3-0.7c0.6,0.2,1.2,0.4,1.7,0.5
	c0.7,0.2,0.9,0.6,0.7,1.3c-0.5,1.7-0.8,3.4-0.7,5.2c0.1,2.8,0.8,5.4,2.1,7.9C105.7,35.4,105.7,35.7,104.8,36.2z M130.3,36.8
	c-0.4-0.4-0.8-0.8-1.2-1.2c-0.5-0.5-0.5-0.9-0.1-1.4c2.2-2.5,3.2-5.4,2.9-8.6c-0.3-4.8-3.8-9-8.5-10.2c-6.7-1.8-13.4,2.7-14.3,9.6
	c-0.5,3.5,0.5,6.5,2.8,9.2c0.6,0.7,0.6,1,0,1.6c-0.5,0.4-0.9,0.9-1.4,1.3c-0.4,0.4-0.8,0.4-1.2,0c-2.2-2.4-3.5-5.1-3.9-8.3
	c-0.6-4.4,0.5-8.4,3.3-11.8c2.5-3.1,5.8-5,9.7-5.5c6-0.8,10.9,1.3,14.6,6.2c1.7,2.2,2.6,4.7,2.9,7.5c0.1,0.5,0.1,1,0.1,1.4
	c-0.1,4.1-1.3,7.5-3.9,10.4C131.3,37.5,131,37.5,130.3,36.8z M139,36.7c-0.4,0.6-0.7,0.7-1.3,0.4c-0.6-0.3-1.2-0.7-1.7-1
	c-0.5-0.3-0.6-0.7-0.3-1.3c1.1-1.9,1.8-3.9,2.1-6.1c0.3-2.4,0.2-4.8-0.5-7.2c-0.2-0.8-0.1-1.1,0.7-1.3c0.6-0.2,1.2-0.4,1.7-0.5
	c0.7-0.2,1,0,1.2,0.6c0.6,2,0.9,4,0.9,5.6C141.7,30.1,140.8,33.5,139,36.7z"/>
<g id="XMLID_29_">
	<path id="XMLID_53_" d="M-88.1,30c-7.1,0-13.5,2.9-18.1,7.5c-4.6,4.6-7.5,11-7.5,18.1v0c0,14.1,11.5,25.6,25.6,25.6h0
		c14.1,0,25.6-11.5,25.6-25.6v0C-62.5,41.5-74,30-88.1,30z M-76.1,59.2c-0.3,1.7-1.2,3.1-2.7,4c-0.9,0.6-2,0.9-3.1,0.9
		c-3.3,0-6.6,0-9.9,0c-3.1,0-6.2,0-9.3,0c-2.6,0-4.6-1.1-6.1-3.3c-0.6-0.8-0.9-1.7-1.1-2.7c-0.2-0.9-0.2-1.8-0.1-2.7
		c0.3-1.8,1.2-3.4,2.6-4.5c0.8-0.7,1.7-1.1,2.7-1.4c0.8-0.2,1.7-0.3,2.6-0.3c0.2,0,0.4-0.1,0.4-0.3c0.4-1.2,1-2.2,1.8-3.1
		c0.8-0.9,1.7-1.6,2.7-2.1c1.5-0.7,3-1.1,4.6-1c1.1,0,2.2,0.3,3.2,0.7c1.6,0.7,3,1.8,4,3.2c0.6,0.8,1,1.7,1.3,2.7
		c0.3,0.9,0.4,1.8,0.4,2.8c0,0.2,0.1,0.3,0.3,0.3c0.6,0,1.1,0.1,1.7,0.3c1.2,0.4,2.2,1.1,2.9,2.2C-76.2,56.2-75.9,57.6-76.1,59.2z
		 M-74,63.5c-0.1,0.1-0.2,0.2-0.3,0c-0.5-0.5-1-0.9-1.5-1.4c0.3-0.4,0.5-0.7,0.7-1c0.7-1.1,1-2.3,0.9-3.5c-0.1-1.1-0.5-2.1-1.2-3
		c-0.1-0.1-0.3-0.3-0.4-0.4c-0.1-0.1-0.1-0.2,0-0.3c0.4-0.4,0.9-0.9,1.3-1.3c0.1-0.2,0.2-0.1,0.4,0c0.6,0.6,1.1,1.3,1.4,2.1
		c0.5,1.1,0.8,2.3,0.8,3.6c0,1.3-0.3,2.5-1,3.7C-73.3,62.4-73.7,62.9-74,63.5z M-67.8,59.4c-0.2,1.3-0.5,2.5-1,3.7s-1.3,2.3-2.2,3.2
		c-0.1,0.1-0.2,0.2-0.4,0c-0.4-0.4-0.9-0.9-1.3-1.3c-0.1-0.1,0-0.2,0-0.3c0.6-0.6,1.1-1.3,1.5-2.1c0.3-0.6,0.6-1.3,0.8-1.9
		c0.3-0.9,0.4-1.9,0.4-2.9c0-0.8-0.2-1.6-0.4-2.4c-0.4-1.4-1.1-2.6-2-3.7c-0.1-0.1-0.2-0.2-0.3-0.4c0-0.1,0-0.2,0-0.2
		c0.5-0.5,1-1,1.5-1.5c0.3,0.4,0.7,0.7,1,1.1c0.8,1,1.4,2.1,1.8,3.2C-67.8,55.8-67.5,57.6-67.8,59.4z"/>
	<path id="XMLID_44_" d="M-78.4,59c-0.3,1.2-1,2.1-2.2,2.5c-0.4,0.2-0.9,0.3-1.3,0.3c-6.5,0-12.9,0-19.4,0c-1.1,0-2.2-0.4-3.1-1.1
		c-0.6-0.5-1.1-1.1-1.5-1.8c-0.4-0.9-0.6-1.9-0.5-2.9c0.2-1.8,1.1-3,2.6-3.9c1.1-0.6,2.3-0.8,3.5-0.5c0.7,0.1,1.4,0.4,2,0.9
		c0,0,0.1,0.1,0.1,0.1c0,0,0,0,0.1,0c0.2-0.2,0.4-0.5,0.6-0.7c0.2-0.3,0.4-0.6,0.7-0.9c0.1-0.2,0.1-0.3-0.1-0.4
		c-0.4-0.2-0.8-0.5-1.2-0.7c-0.2-0.1-0.2-0.2-0.1-0.4c0.2-0.5,0.5-1,0.8-1.5c0.7-1.1,1.6-1.9,2.8-2.4c0.7-0.3,1.3-0.6,2.1-0.6
		c0.5,0,1.1-0.1,1.6-0.1c0.8,0,1.5,0.3,2.2,0.6c0.8,0.4,1.6,0.9,2.2,1.5c0.7,0.7,1.2,1.5,1.6,2.5c0.4,1.1,0.5,2.3,0.4,3.5
		c-0.1,0.7-0.3,1.5-0.7,2.1c-0.1,0.2,0,0.2,0.1,0.3c0.6,0.3,1.2,0.6,1.8,1c0.1-0.3,0.3-0.5,0.4-0.8c0.1-0.3,0.2-0.5,0.3-0.8
		c0-0.1,0.2-0.2,0.4-0.2c0.4,0,0.8,0,1.1,0.1c0.7,0.2,1.3,0.5,1.7,1.1C-78.4,56.7-78.1,57.8-78.4,59z"/>
</g>
<path id="XMLID_37_" d="M-147.9-56c-7.1,0-13.5,2.9-18.1,7.5c-4.6,4.6-7.5,11-7.5,18.1v0c0,14.1,11.5,25.6,25.6,25.6h0
	c14.1,0,25.6-11.5,25.6-25.6v0C-122.3-44.5-133.8-56-147.9-56z"/>
<g id="XMLID_30_">
	<path id="XMLID_33_" fill="#5D5D5D" d="M-203.2,32.2c-3.1,0-6.2,0-9.3,0c-2.6,0-4.6-1.1-6.1-3.2c-0.6-0.8-0.9-1.7-1.1-2.6
		c-0.2-0.9-0.2-1.8-0.1-2.7c0.3-1.8,1.2-3.4,2.6-4.5c0.8-0.7,1.7-1.1,2.7-1.4c0.8-0.2,1.7-0.3,2.6-0.2c0.2,0,0.3-0.1,0.4-0.3
		c0.4-1.2,1-2.2,1.8-3.1c0.8-0.9,1.7-1.6,2.7-2.1c1.4-0.7,3-1.1,4.6-1c1.1,0,2.2,0.3,3.2,0.7c1.6,0.7,3,1.8,4,3.2
		c0.6,0.8,1,1.7,1.3,2.6c0.3,0.9,0.4,1.8,0.4,2.8c0,0.2,0.1,0.3,0.3,0.3c0.6,0,1.1,0.1,1.7,0.3c1.2,0.4,2.2,1.1,2.9,2.2
		c0.9,1.3,1.3,2.8,1,4.4c-0.3,1.7-1.2,3.1-2.7,4c-0.9,0.6-2,0.9-3.1,0.9C-196.6,32.2-199.9,32.2-203.2,32.2
		C-203.2,32.2-203.2,32.2-203.2,32.2z M-209.2,20.7c-0.1,0-0.1,0-0.1-0.1c0,0-0.1-0.1-0.1-0.1c-0.6-0.4-1.2-0.7-2-0.9
		c-1.2-0.2-2.4-0.1-3.5,0.5c-1.5,0.9-2.4,2.2-2.6,3.9c-0.1,1,0,2,0.5,2.9c0.4,0.7,0.8,1.3,1.5,1.8c0.9,0.7,1.9,1.1,3.1,1.1
		c6.5,0,12.9,0,19.4,0c0.4,0,0.9-0.1,1.3-0.3c1.1-0.5,1.9-1.3,2.2-2.6c0.3-1.2,0-2.3-0.9-3.2c-0.5-0.5-1.1-0.9-1.7-1.1
		c-0.4-0.1-0.7-0.1-1.1-0.1c-0.1,0-0.3,0.1-0.4,0.2c-0.1,0.3-0.2,0.5-0.3,0.8c-0.1,0.3-0.3,0.6-0.4,0.8c-0.6-0.3-1.2-0.6-1.8-1
		c-0.1-0.1-0.2-0.1-0.1-0.3c0.3-0.7,0.6-1.4,0.7-2.1c0.1-1.2,0.1-2.3-0.4-3.5c-0.4-0.9-0.9-1.8-1.6-2.5c-0.6-0.7-1.4-1.2-2.2-1.5
		c-0.7-0.3-1.4-0.5-2.2-0.6c-0.5,0-1.1,0-1.6,0.1c-0.7,0-1.4,0.3-2.1,0.6c-1.1,0.6-2.1,1.4-2.8,2.4c-0.3,0.5-0.5,1-0.8,1.5
		c-0.1,0.1-0.1,0.3,0.1,0.4c0.4,0.2,0.8,0.5,1.2,0.7c0.2,0.1,0.2,0.2,0.1,0.4c-0.2,0.3-0.4,0.6-0.7,0.9
		C-208.9,20.3-209,20.5-209.2,20.7z"/>
	<path id="XMLID_32_" fill="#5D5D5D" d="M-182.5,17.8c0.3,0.4,0.7,0.7,0.9,1.1c0.8,1,1.4,2.1,1.8,3.2c0.6,1.8,0.9,3.5,0.6,5.4
		c-0.2,1.3-0.5,2.5-1,3.7c-0.5,1.2-1.3,2.2-2.2,3.2c-0.1,0.1-0.2,0.2-0.4,0c-0.4-0.4-0.9-0.9-1.3-1.3c-0.1-0.1,0-0.2,0-0.3
		c0.6-0.6,1.1-1.3,1.5-2.1c0.3-0.6,0.6-1.3,0.8-1.9c0.3-0.9,0.4-1.9,0.4-2.9c0-0.8-0.2-1.6-0.4-2.4c-0.4-1.4-1-2.6-1.9-3.7
		c-0.1-0.1-0.2-0.2-0.3-0.4c0-0.1-0.1-0.2,0-0.2C-183.5,18.8-183,18.3-182.5,17.8z"/>
	<path id="XMLID_31_" fill="#5D5D5D" d="M-187.2,30.2c0.3-0.4,0.5-0.7,0.7-1c0.7-1.1,1-2.3,0.9-3.5c-0.1-1.1-0.5-2.1-1.2-3
		c-0.1-0.2-0.2-0.3-0.4-0.4c-0.1-0.1-0.1-0.2,0-0.3c0.4-0.4,0.9-0.9,1.3-1.3c0.1-0.1,0.2-0.1,0.4,0c0.6,0.6,1.1,1.3,1.4,2.1
		c0.5,1.1,0.8,2.3,0.8,3.6c0,1.3-0.3,2.5-1,3.7c-0.3,0.6-0.7,1-1.1,1.6c-0.1,0.1-0.2,0.2-0.3,0C-186.2,31.1-186.7,30.7-187.2,30.2z"
		/>
</g>
<path id="XMLID_233_" fill="#953DCC" d="M-228.7-135.7c0,6.1,0,12.3,0,18.4c-0.2,0.4-0.2,0.9-0.2,1.4c-0.2,1.5-0.7,2.8-1.3,4.1
	c-0.6,1.3-1.3,2.4-2.3,3.4c-1,1.1-2.1,2.1-3.4,2.8c-1.6,1-3.4,1.7-5.3,2.1c-0.5,0.1-1,0.1-1.5,0.3c-13.5,0-27,0-40.4,0
	c-0.3-0.1-0.7-0.1-1-0.1c-1.2-0.2-2.4-0.5-3.6-1c-1.7-0.7-3.2-1.7-4.6-2.9c-1.2-1.1-2.1-2.3-2.9-3.7c-0.9-1.6-1.4-3.2-1.7-5
	c-0.1-0.4-0.1-0.8-0.2-1.2c0-5.7,0-11.4,0-17.1c1.7,0,3.5-0.1,5.2-0.1c1.4,0,2.8,0,4.2,0c0.1,0,0.3,0,0.4,0c0.2,0,0.4,0,0.5-0.1
	c0.1-0.2,0-0.4-0.1-0.5c-0.1-0.2-0.1-0.3,0.1-0.5c0.5,2.1,1.2,4.2,2.2,6.1c1.4,2.7,3.1,5,5.4,6.9c1.3,1.2,2.7,2.2,4.3,3
	c1.2,0.7,2.4,1.3,3.7,1.8c0.4,0.2,0.5,0.1,0.5-0.4c0-0.7-0.1-1.4-0.3-2.1c-0.1-0.5-0.4-0.9-0.9-1.1c-2.4-1.1-4.5-2.7-6.3-4.6
	c-1.2-1.2-2.1-2.5-3-4c-0.7-1.2-1.3-2.4-1.7-3.7c0.2-0.2,0.5-0.4,0.7,0c0,0,0.1,0,0.2,0c1.1,0,2.3-0.2,3.4,0c0.3,0,0.3-0.2,0.3-0.4
	c0-0.2-0.1-0.5,0.1-0.7c0.7,1.5,1.5,3,2.5,4.3c1,1.3,2.2,2.3,3.6,3.2c0.2,0.2,0.3,0.1,0.3-0.2c0.1-0.7,0-1.4,0.1-2.2
	c0.1-0.7-0.2-1.3-0.7-1.8c-1.1-1.2-2-2.6-2.7-4.1c-0.4-1.1-0.8-2.2-0.9-3.4c0.1,0.1,0.2,0.2,0.2,0.3c0,0.2,0,0.4,0.1,0.6
	c0,0.2,0.2,0.3,0.4,0.3c0.5,0.1,0.9-0.1,1.4-0.1c1.7,0,3.4,0,5.1,0c0.3,0,0.6-0.2,0.9,0c0,0,0.1,0,0.1,0c0.1,0,0-0.1,0-0.1
	c0-0.1-0.2-0.2-0.1-0.2c0.1-0.1,0.2,0,0.2,0.2c0,0.1,0,0.2,0.1,0.2c0.3-0.1,0.7,0.1,0.9-0.3l0,0c0,0,0,0.1,0.1,0.1c0,0,0,0,0,0
	c0,0,0,0,0,0l0,0c0,0.2,0.1,0.2,0.3,0.2l0,0c0,0.1,0.1,0.1,0.2,0.1l0,0c0,0,0.1,0,0.1,0.1l0,0c0,0,0.1,0,0.1,0.1l0,0
	c0.1,0.2,0.4,0.3,0.6,0.3c0,0,0,0,0.1,0c0.1,0.1,0.2,0.2,0.4,0.2c1,0.3,2.1,0.4,3.1,0.1c0.4-0.1,0.8-0.1,1.1-0.4l0,0
	c0,0,0.1,0,0.1-0.1l0,0c0.3,0,0.5-0.1,0.7-0.4l0,0c0.1,0,0.2,0,0.2-0.1l0,0c0,0,0,0,0.1,0l0,0c0,0,0.1-0.1,0.1-0.1c0,0,0,0,0,0
	c0.1,0,0.1-0.1,0.1-0.1l0,0c0,0,0,0,0.1,0l0,0c0,0,0,0,0.1,0c0,0,0.1-0.1,0.1-0.1c0,0,0,0,0.1-0.1c0,0,0.1-0.1,0.1-0.1c0,0,0,0,0,0
	l0,0c0,0,0,0,0,0l0,0c0,0,0,0,0,0l0,0c0.2,0,0.3-0.1,0.3-0.3l0,0c0.1,0,0.1-0.1,0.1-0.2l0,0c0.1,0,0.1,0,0.2,0
	c0.3,0.2,0.3,0.2,0.4-0.2c0-0.2,0.1-0.4,0.4-0.4c0.2,0,0.4-0.1,0.5,0c0.9,0,1.9,0,2.8,0.1c0.8,0.1,1.6-0.1,2.4-0.1
	c0.5,0,0.5,0,0.5,0.5c0,0.1,0,0.3,0.2,0.3c0.1,0,0.1-0.1,0.2-0.2c0-0.1,0-0.1,0.1-0.1c0.1,0.1,0.1,0.1,0.1,0.2c0,0.1,0,0.2,0,0.2
	c0,0,0,0.1,0,0.1c-0.1,0.1-0.1,0.2-0.1,0.3c0,0.1,0,0.1,0,0.2c-0.3,1.5-0.8,2.9-1.6,4.3c-0.6,1.1-1.5,2.1-2.3,3.1
	c-0.2,0.2-0.2,0.4-0.2,0.6c0,0.5,0,1.1,0,1.6c0,0.4,0,0.8,0.1,1.3c0,0.2,0.1,0.2,0.3,0.1c0.1-0.1,0.3-0.1,0.4-0.2
	c0.5-0.5,1.1-0.9,1.6-1.4c1.1-1,2.1-2.2,2.9-3.5c0,0,0-0.1,0.1-0.1c0,0,0,0,0,0c0.1,0,0.1-0.1,0.1-0.2l0,0c0,0,0-0.1,0.1-0.1l0,0
	c0,0,0,0,0-0.1l0,0c0,0,0-0.1,0.1-0.1l0,0c0.2-0.2,0.3-0.5,0.4-0.8c0,0,0,0,0-0.1c0,0,0-0.1,0.1-0.1l0,0c0.2-0.2,0.3-0.5,0.3-0.8
	l0,0c0-0.1,0.1-0.1,0.1-0.2l0,0c0.2-0.2,0.3-0.5,0.3-0.8l0,0c0.2-0.1,0.2,0,0.2,0.2c0,0.2,0.1,0.3,0.3,0.1c0.1-0.1,0.2-0.2,0.4-0.2
	c1,0,1.9-0.1,2.9-0.1c0.2,0,0.3,0,0.4,0.2c0,0.1,0.1,0.1,0.2,0.1c0.1,0,0.1-0.1,0.1-0.2c0-0.1,0-0.3,0.2-0.2c0.2,0,0.3,0.1,0.3,0.3
	c-0.1,0.7-0.3,1.3-0.6,1.9c-0.7,2.1-1.8,4-3.2,5.8c-0.6,0.9-1.4,1.6-2.1,2.4c-0.3,0.3-0.6,0.6-1,0.9c-0.5,0.5-1.1,0.9-1.7,1.3
	c-0.9,0.6-1.7,1.2-2.7,1.6c-0.7,0.2-1.2,0.6-1.3,1.4c-0.1,0.6-0.3,1.3-0.3,1.9c0,0.6,0,0.7,0.6,0.5c0.1,0,0.1,0,0.2-0.1
	c1-0.4,1.9-0.9,2.8-1.4c2-1.1,3.9-2.3,5.5-3.9c1.9-1.9,3.5-4,4.7-6.4c1.3-2.7,2.3-5.5,2.5-8.5c0.1,0.1,0,0.3,0.1,0.4
	c0.1,0.5-0.2,1-0.1,1.5c0,0.3,0.1,0.4,0.4,0.4c0.6,0,1.2,0,1.8-0.1C-234.4-135.7-231.6-135.5-228.7-135.7z M-269.3-128.5
	c0,1.8,0.2,3.6,0.4,5.4c0.3,2.7,0.7,5.3,1.2,8c0.2,1.1,0.6,2.1,1.4,2.9c0.6,0.6,1.4,0.9,2.2,1.1c0.6,0.1,1.1,0.1,1.7,0.1
	c0.9-0.1,1.6-0.3,2.3-0.8c0.6-0.5,1-1.3,1.2-2c0.2-0.7,0.4-1.5,0.4-2.2c0.1-0.9,0.3-1.7,0.4-2.6c0.3-2.1,0.5-4.1,0.7-6.2
	c0.2-1.7,0.3-3.3,0.2-5c-0.1-0.7-0.2-1.4-0.6-2c-0.7-0.8-1.6-1.4-2.6-1.8c-1.3-0.5-2.6-0.5-3.9-0.4c-1,0.1-2,0.3-2.9,0.8
	c-1.1,0.6-1.9,1.5-2,2.8C-269.2-129.9-269.3-129.2-269.3-128.5z M-239.6-134.8L-239.6-134.8L-239.6-134.8L-239.6-134.8z"/>
<path id="XMLID_232_" fill="#C160EB" d="M-228.7-135.7c-2.9,0.1-5.7,0-8.6,0.1c-0.6,0-1.2,0-1.8,0.1c-0.3,0-0.4-0.1-0.4-0.4
	c0-0.5,0.2-1,0.1-1.5c0-0.1,0-0.3-0.1-0.4c0-0.1,0-0.2,0-0.3c0.1-0.1,0.1-0.2,0.1-0.4c0-0.5,0-1,0-1.5c0-0.7-0.1-1.4,0-2.1
	c0-0.1,0-0.2-0.1-0.2c-0.1-1.1-0.2-2.1-0.5-3.1c-1.2-5.3-4-9.6-8-13.2c-1.8-1.6-3.9-2.9-6.2-3.8c-2.5-1.1-5.2-1.7-7.9-1.8
	c-3.4-0.2-6.7,0.3-9.9,1.5c-1.7,0.6-3.3,1.5-4.7,2.5c-1.1,0.8-2.2,1.6-3.2,2.6c-0.7,0.7-1.4,1.4-2,2.1c-0.9,1.1-1.8,2.3-2.5,3.6
	c-1.1,2-1.9,4.1-2.5,6.3c-0.5,1.9-0.6,3.8-0.5,5.8c0,1,0.1,1.9,0.1,2.9c0,0.3-0.1,0.7,0.1,0.9c0,0,0,0,0,0.1c0,0.2-0.1,0.4,0.1,0.6
	c0,0,0,0.1,0,0.1c-0.2,0.1-0.2,0.3-0.1,0.5c0.1,0.1,0.2,0.3,0.1,0.5c-0.1,0.2-0.3,0.2-0.5,0.1c-0.1,0-0.3,0-0.4,0
	c-1.4,0-2.8,0-4.2,0c-1.7,0-3.5,0.1-5.2,0.1c0-7.7,0-15.4,0-23.1c0-0.1,0.1-0.2,0.1-0.4c0.1-1.1,0.4-2.1,0.6-3.2
	c0.2-0.7,0.5-1.4,0.8-2.1c0.5-1,1.1-1.9,1.8-2.8c0.7-0.9,1.5-1.7,2.4-2.4c1.5-1.2,3.2-2.1,5.1-2.7c0.9-0.3,1.8-0.4,2.7-0.6
	c0.2,0,0.4,0.1,0.6-0.1c13.4,0,26.8,0,40.2,0c0.7,0.1,1.4,0.3,2.1,0.4c1,0.1,2,0.5,2.9,0.9c2.6,1.1,4.7,2.9,6.3,5.1
	c1.5,2.1,2.4,4.4,2.7,6.9c0,0.2,0,0.5,0.1,0.7C-228.7-150.3-228.7-143-228.7-135.7z"/>
<path id="XMLID_231_" fill="#FEFCFE" d="M-242.7-103.1c0.5-0.1,1-0.2,1.5-0.3c1.9-0.4,3.6-1.1,5.3-2.1c1.3-0.8,2.4-1.8,3.4-2.8
	c0.9-1,1.7-2.2,2.3-3.4c0.6-1.3,1.1-2.7,1.3-4.1c0.1-0.5,0.1-1,0.2-1.4c0,4.6,0,9.2,0,13.8c0,0.2,0,0.3-0.3,0.3
	C-233.5-103.1-238.1-103.1-242.7-103.1z"/>
<path id="XMLID_230_" fill="#FEFCFE" d="M-283-171.6c-0.2,0.2-0.4,0.1-0.6,0.1c-0.9,0.2-1.8,0.3-2.7,0.6c-1.9,0.6-3.6,1.4-5.1,2.7
	c-0.9,0.7-1.7,1.5-2.4,2.4c-0.7,0.9-1.3,1.8-1.8,2.8c-0.3,0.7-0.6,1.4-0.8,2.1c-0.3,1-0.6,2.1-0.6,3.2c0,0.1,0,0.2-0.1,0.4
	c0-4.7,0-9.3,0-14c0-0.2,0-0.3,0.3-0.3C-292.2-171.6-287.6-171.6-283-171.6z"/>
<path id="XMLID_229_" fill="#FEFCFE" d="M-228.7-157.5c-0.1-0.2-0.1-0.5-0.1-0.7c-0.3-2.5-1.2-4.9-2.7-6.9c-1.6-2.3-3.7-4-6.3-5.1
	c-0.9-0.4-1.9-0.8-2.9-0.9c-0.7-0.1-1.4-0.3-2.1-0.4c4.6,0,9.2,0,13.8,0c0.2,0,0.3,0,0.3,0.3C-228.7-166.7-228.7-162.1-228.7-157.5z
	"/>
<path id="XMLID_228_" fill="#FEFCFE" d="M-297.1-117.1c0.1,0.4,0.1,0.8,0.2,1.2c0.3,1.8,0.9,3.4,1.7,5c0.8,1.4,1.7,2.6,2.9,3.7
	c1.4,1.3,2.9,2.2,4.6,2.9c1.1,0.5,2.3,0.8,3.6,1c0.3,0.1,0.7,0,1,0.1c-4.6,0-9.2,0-13.8,0c-0.2,0-0.3,0-0.3-0.3
	C-297.1-108-297.1-112.5-297.1-117.1z"/>
<path id="XMLID_227_" fill="#FEFCFE" d="M-286.9-135.4c0,0,0-0.1,0-0.1c-0.1-0.2,0-0.4-0.1-0.6c0,0,0,0,0-0.1c0-0.3,0-0.6-0.1-0.9
	c0-1-0.1-1.9-0.1-2.9c0-2,0-3.9,0.5-5.8c0.6-2.2,1.4-4.3,2.5-6.3c0.7-1.3,1.6-2.5,2.5-3.6c0.6-0.7,1.3-1.4,2-2.1
	c1-0.9,2.1-1.8,3.2-2.6c1.5-1,3.1-1.8,4.7-2.5c3.2-1.2,6.5-1.7,9.9-1.5c2.7,0.1,5.4,0.7,7.9,1.8c2.3,0.9,4.3,2.2,6.2,3.8
	c4.1,3.5,6.8,7.9,8,13.2c0.2,1,0.4,2.1,0.5,3.1c0,1.4,0.1,2.8,0,4.1c0,0.1,0,0.2,0,0.3c-0.2,3-1.1,5.8-2.5,8.5
	c-1.2,2.4-2.8,4.5-4.7,6.4c-1.6,1.6-3.5,2.9-5.5,3.9c-0.9,0.5-1.8,1-2.8,1.4c-0.1,0-0.1,0-0.2,0.1c-0.6,0.2-0.6,0.2-0.6-0.5
	c0-0.7,0.1-1.3,0.3-1.9c0.2-0.7,0.7-1.1,1.3-1.4c1-0.4,1.8-1,2.7-1.6c0.6-0.4,1.2-0.8,1.7-1.3c0.3-0.3,0.6-0.6,1-0.9
	c0.8-0.7,1.5-1.5,2.1-2.4c1.3-1.8,2.4-3.7,3.2-5.8c0.2-0.6,0.5-1.2,0.6-1.9c0.1-0.1,0.2-0.3,0.2-0.5c0.2-0.8,0.3-1.6,0.3-2.5
	c0.1-2.1,0.1-4.1-0.3-6.2c-0.5-2.7-1.6-5.1-3.1-7.3c-1.2-1.8-2.6-3.3-4.2-4.7c-1.3-1.1-2.7-2-4.3-2.7c-2.6-1.2-5.3-1.9-8.2-1.9
	c-1.6,0-3.3,0-4.9,0.3c-3.8,0.7-7.2,2.5-10,5.1c-2.2,2-3.9,4.3-5.1,7c-0.7,1.6-1.3,3.2-1.5,5c-0.3,2.2-0.2,4.4-0.1,6.5
	c0.1,1.3,0.4,2.6,0.9,3.8c0.4,1.3,1,2.5,1.7,3.7c0.9,1.4,1.8,2.8,3,4c1.8,1.9,3.9,3.4,6.3,4.6c0.5,0.2,0.8,0.6,0.9,1.1
	c0.2,0.7,0.2,1.4,0.3,2.1c0,0.4-0.1,0.5-0.5,0.4c-1.3-0.5-2.5-1.1-3.7-1.8c-1.5-0.8-2.9-1.8-4.3-3c-2.2-2-4-4.3-5.4-6.9
	C-285.7-131.2-286.4-133.2-286.9-135.4z"/>
<path id="XMLID_226_" fill="#C160EB" d="M-283.1-133.3c-0.5-1.2-0.8-2.5-0.9-3.8c-0.2-2.2-0.2-4.4,0.1-6.5c0.2-1.7,0.8-3.4,1.5-5
	c1.2-2.7,2.9-5,5.1-7c2.9-2.6,6.2-4.4,10-5.1c1.6-0.3,3.2-0.3,4.9-0.3c2.9,0,5.6,0.7,8.2,1.9c1.5,0.7,2.9,1.6,4.3,2.7
	c1.6,1.4,3.1,2.9,4.2,4.7c1.5,2.3,2.6,4.7,3.1,7.3c0.4,2,0.4,4.1,0.3,6.2c0,0.8-0.1,1.7-0.3,2.5c0,0.2,0,0.4-0.2,0.5
	c0-0.2-0.1-0.3-0.3-0.3c-0.2,0-0.2,0.1-0.2,0.2c0,0.1,0,0.2-0.1,0.2c-0.1,0-0.1-0.1-0.2-0.1c0-0.2-0.2-0.2-0.4-0.2
	c-1,0-1.9,0.1-2.9,0.1c-0.1,0-0.2,0.1-0.4,0.2c-0.2,0.1-0.3,0.1-0.3-0.1c0-0.2-0.1-0.3-0.2-0.2c0-0.1,0-0.2,0.1-0.3
	c1-3.4,0.9-6.8-0.5-10.1c-1.6-3.9-4.2-6.8-8-8.7c-2-1-4.1-1.5-6.3-1.6c-0.6,0-1.2,0-1.7,0c-0.8,0-1.7,0.1-2.5,0.2
	c-1.5,0.3-2.8,0.8-4.1,1.6c-1.3,0.8-2.6,1.6-3.7,2.7c-1.2,1.2-2.3,2.6-3.1,4.2c-1,1.9-1.6,4-1.7,6.2c-0.1,1.8,0,3.7,0.5,5.5
	c0.1,0.5,0.3,0.9,0.5,1.4c-0.2,0.2-0.1,0.5-0.1,0.7c0,0.3,0,0.5-0.3,0.4c-1.1-0.1-2.3,0.1-3.4,0c-0.1,0-0.2,0-0.2,0
	C-282.6-133.7-282.8-133.5-283.1-133.3z"/>
<path id="XMLID_225_" fill="#FEFCFE" d="M-269.3-128.5c0-0.7,0-1.4,0.1-2c0.2-1.3,0.9-2.2,2-2.8c0.9-0.5,1.9-0.7,2.9-0.8
	c1.3-0.1,2.6,0,3.9,0.4c1,0.4,1.9,1,2.6,1.8c0.5,0.6,0.6,1.3,0.6,2c0.1,1.7,0,3.3-0.2,5c-0.2,2.1-0.4,4.1-0.7,6.2
	c-0.1,0.9-0.3,1.7-0.4,2.6c-0.1,0.8-0.2,1.5-0.4,2.2c-0.2,0.8-0.6,1.5-1.2,2c-0.7,0.5-1.5,0.8-2.3,0.8c-0.6,0-1.2,0.1-1.7-0.1
	c-0.8-0.2-1.6-0.5-2.2-1.1c-0.8-0.8-1.2-1.8-1.4-2.9c-0.5-2.6-0.9-5.3-1.2-8C-269.1-124.9-269.2-126.7-269.3-128.5z"/>
<path id="XMLID_224_" fill="#FEFCFE" d="M-278.4-134.5c-0.2-0.5-0.3-0.9-0.5-1.4c-0.6-1.8-0.6-3.6-0.5-5.5c0.1-2.2,0.7-4.2,1.7-6.2
	c0.8-1.6,1.9-2.9,3.1-4.2c1.1-1.1,2.3-2,3.7-2.7c1.3-0.7,2.6-1.3,4.1-1.6c0.8-0.1,1.7-0.2,2.5-0.2c0.6,0,1.2,0,1.7,0
	c2.2,0,4.3,0.6,6.3,1.6c3.7,1.9,6.4,4.8,8,8.7c1.3,3.3,1.4,6.7,0.5,10.1c0,0.1,0,0.2-0.1,0.3c0,0,0,0,0,0c-0.1,0.3-0.2,0.5-0.3,0.8
	c0,0,0,0,0,0c-0.1,0-0.1,0.1-0.1,0.2c0,0,0,0,0,0c-0.1,0.2-0.2,0.5-0.3,0.8c0,0,0,0,0,0c0,0-0.1,0.1-0.1,0.1c0,0,0,0,0,0.1
	c-0.1,0.3-0.3,0.5-0.4,0.8c0,0,0,0,0,0c0,0,0,0.1-0.1,0.1c0,0,0,0,0,0c0,0,0,0,0,0.1c0,0,0,0,0,0c0,0-0.1,0.1-0.1,0.1c0,0,0,0,0,0
	c-0.1,0-0.1,0.1-0.1,0.2c0,0,0,0,0,0c0,0-0.1,0.1-0.1,0.1c-0.8,1.3-1.8,2.5-2.9,3.5c-0.5,0.5-1,0.9-1.6,1.4
	c-0.1,0.1-0.3,0.1-0.4,0.2c-0.2,0.1-0.2,0.1-0.3-0.1c-0.1-0.4-0.1-0.8-0.1-1.3c0-0.5,0-1.1,0-1.6c0-0.3,0.1-0.4,0.2-0.6
	c0.8-1,1.7-1.9,2.3-3.1c0.8-1.3,1.3-2.8,1.6-4.3c0-0.1,0-0.1,0-0.2c0.1-0.1,0.1-0.2,0.1-0.3c0,0,0-0.1,0-0.1
	c0.2-1.6,0.1-3.2-0.3-4.7c-1.5-6.2-7.5-10.8-14.3-9.8c-4.8,0.7-8.1,3.3-10.2,7.6c-0.6,1.2-0.9,2.4-1,3.7c0,0.1,0,0.3,0,0.4
	c-0.1,0.1,0,0.2,0,0.3c0,0.5,0,1,0,1.6c0,0.1,0,0.1,0,0.2c0,0.2,0,0.4,0.1,0.5c0,0,0,0.1,0,0.1c0.1,1.2,0.4,2.3,0.9,3.4
	c0.6,1.5,1.6,2.9,2.7,4.1c0.5,0.5,0.7,1.1,0.7,1.8c-0.1,0.7,0,1.4-0.1,2.2c0,0.3-0.1,0.3-0.3,0.2c-1.4-0.9-2.6-1.9-3.6-3.2
	C-276.9-131.5-277.7-133-278.4-134.5z"/>
<path id="XMLID_221_" fill="#C160EB" d="M-276.2-141c0-0.1,0-0.2,0-0.3c0.2-0.1,0.1-0.3,0-0.4c0.1-1.3,0.5-2.5,1-3.7
	c2.1-4.3,5.4-7,10.2-7.6c6.8-1,12.8,3.6,14.3,9.8c0.4,1.5,0.5,3.1,0.3,4.7c0-0.1,0-0.2,0-0.2c0-0.1,0-0.2-0.1-0.2
	c-0.1,0-0.1,0.1-0.1,0.1c0,0.1,0,0.2-0.2,0.2c-0.2,0-0.2-0.2-0.2-0.3c-0.1-0.4-0.1-0.5-0.5-0.5c-0.8,0-1.6,0.2-2.4,0.1
	c-0.9-0.1-1.9,0-2.8-0.1c-0.2,0-0.4,0-0.5,0c-0.2,0-0.3,0.2-0.4,0.4c-0.1,0.4-0.1,0.4-0.4,0.2c-0.1,0-0.1,0-0.2,0
	c0.2-0.4,0.5-0.9,0.7-1.3c0.8-2.3,0.1-4.7-1.7-6.2c-1.9-1.5-4-1.8-6.2-0.9c-2.7,1.1-3.9,4-3.1,6.8c0.3,1,0.8,1.8,1.6,2.5
	c-0.1,0.1-0.2,0.2,0,0.3c0.1,0.1,0.2,0,0.2-0.1c0.1,0.1,0.2,0.2,0.3,0.2c-0.2,0.4-0.6,0.2-0.9,0.3c-0.1,0-0.1-0.1-0.1-0.2
	c0-0.1-0.1-0.3-0.2-0.2c-0.1,0.1,0,0.2,0.1,0.2c0,0,0.1,0.1,0,0.1c0,0-0.1,0-0.1,0c-0.3-0.2-0.6,0-0.9,0c-1.7,0-3.4,0-5.1,0
	c-0.5,0-0.9,0.2-1.4,0.1c-0.2,0-0.4-0.1-0.4-0.3c0-0.2-0.1-0.4-0.1-0.6c0-0.1,0-0.3-0.2-0.3c0,0,0-0.1,0-0.1
	c0.1-0.2,0.1-0.4-0.1-0.5c0-0.1,0-0.1,0-0.2C-276-139.7-276-140.7-276.2-141z M-267.8-138.2L-267.8-138.2L-267.8-138.2L-267.8-138.2
	z"/>
<path id="XMLID_220_" fill="#FEFCFE" d="M-266.6-137.7c-0.1-0.1-0.2-0.2-0.3-0.2c0,0,0,0,0,0c0,0,0,0-0.1,0c0,0-0.1,0-0.1-0.1
	c-0.7-0.7-1.3-1.5-1.6-2.5c-0.8-2.8,0.4-5.7,3.1-6.8c2.2-0.9,4.3-0.6,6.2,0.9c1.9,1.5,2.5,4,1.7,6.2c-0.2,0.5-0.4,0.9-0.7,1.3
	c0,0,0,0,0,0c-0.1,0-0.1,0.1-0.1,0.2c0,0,0,0,0,0c-0.1,0.1-0.2,0.2-0.3,0.3c0,0,0,0,0,0c0,0,0,0,0,0c0,0,0,0,0,0c0,0,0,0,0,0
	c0,0,0,0,0,0c0,0,0,0,0,0c0,0-0.1,0.1-0.1,0.1c0,0,0,0-0.1,0.1c0,0-0.1,0.1-0.1,0.1c0,0,0,0-0.1,0c0,0,0,0,0,0c0,0,0,0-0.1,0
	c0,0,0,0,0,0c0,0-0.1,0.1-0.1,0.1c0,0,0,0,0,0c0,0-0.1,0.1-0.1,0.1c0,0,0,0,0,0c0,0,0,0-0.1,0c0,0,0,0,0,0c-0.1,0-0.1,0.1-0.2,0.1
	c0,0,0,0,0,0c-0.2,0.1-0.4,0.3-0.7,0.4c0,0,0,0,0,0c0,0-0.1,0-0.1,0.1c0,0,0,0,0,0c-0.6,0.2-1.1,0.4-1.7,0.5c-1,0.1-1.9,0-2.8-0.3
	c0,0,0,0-0.1,0c-0.2-0.1-0.4-0.2-0.6-0.3c0,0,0,0,0,0c0,0-0.1,0-0.1-0.1c0,0,0,0,0,0c0,0-0.1,0-0.1-0.1c0,0,0,0,0,0
	c0-0.1-0.1-0.1-0.2-0.1c0,0,0,0,0,0c-0.1-0.1-0.2-0.2-0.3-0.2c0,0,0,0,0,0c0,0,0,0,0,0c0,0,0,0,0,0
	C-266.6-137.6-266.6-137.6-266.6-137.7L-266.6-137.7z"/>
<g id="XMLID_34_">
	<path id="XMLID_41_" fill="#FEFCFE" d="M-166.6-27.6C-166.7-27.6-166.7-27.6-166.6-27.6c-0.1-0.2,0-0.4-0.1-0.5c0,0,0,0,0,0
		c0-0.3,0-0.5-0.1-0.8c0-0.8,0-1.5-0.1-2.3c0-1.5,0-3.1,0.4-4.6c0.5-1.7,1.1-3.4,2-5c0.6-1,1.2-2,2-2.9c0.5-0.6,1-1.1,1.6-1.7
		c0.8-0.7,1.6-1.4,2.5-2c1.2-0.8,2.4-1.5,3.8-1.9c2.5-0.9,5.2-1.3,7.9-1.2c2.2,0.1,4.2,0.6,6.3,1.4c1.8,0.8,3.4,1.8,4.9,3
		c3.2,2.8,5.4,6.2,6.4,10.4c0.2,0.8,0.3,1.6,0.4,2.5c0,1.1,0,2.2,0,3.3c0,0.1,0,0.1,0,0.2c-0.2,2.4-0.9,4.6-1.9,6.7
		c-1,1.9-2.2,3.6-3.8,5.1c-1.3,1.3-2.8,2.3-4.4,3.1c-0.7,0.4-1.5,0.8-2.2,1.1c0,0-0.1,0-0.1,0c-0.5,0.2-0.5,0.1-0.5-0.4
		c0-0.5,0.1-1,0.2-1.5c0.1-0.6,0.5-0.9,1.1-1.1c0.8-0.3,1.4-0.8,2.1-1.3c0.5-0.3,0.9-0.7,1.3-1c0.3-0.2,0.5-0.4,0.8-0.7
		c0.6-0.6,1.2-1.2,1.7-1.9c1-1.4,1.9-2.9,2.5-4.6c0.2-0.5,0.4-1,0.4-1.5c0.1-0.1,0.1-0.3,0.2-0.4c0.1-0.6,0.2-1.3,0.2-2
		c0.1-1.6,0.1-3.3-0.2-4.9c-0.4-2.1-1.3-4-2.4-5.8c-0.9-1.4-2.1-2.6-3.4-3.7c-1-0.9-2.2-1.6-3.4-2.2c-2-1-4.2-1.5-6.5-1.5
		c-1.3,0-2.6,0-3.9,0.2c-3,0.6-5.7,2-8,4.1c-1.7,1.6-3.1,3.4-4,5.5c-0.6,1.3-1,2.6-1.2,3.9c-0.2,1.7-0.2,3.5,0,5.2
		c0.1,1,0.3,2,0.7,3c0.3,1,0.8,2,1.4,3c0.7,1.1,1.5,2.2,2.4,3.2c1.4,1.5,3.1,2.7,5,3.6c0.4,0.2,0.6,0.5,0.7,0.9
		c0.1,0.5,0.2,1.1,0.2,1.7c0,0.4-0.1,0.4-0.4,0.3c-1-0.4-2-0.9-2.9-1.4c-1.2-0.7-2.3-1.5-3.4-2.4c-1.8-1.6-3.2-3.4-4.3-5.5
		C-165.7-24.2-166.3-25.9-166.6-27.6z"/>
	<path id="XMLID_40_" fill="#FEFCFE" d="M-152.7-22.1c0-0.5,0-1.1,0.1-1.6c0.1-1,0.7-1.7,1.6-2.2c0.7-0.4,1.5-0.6,2.3-0.6
		c1.1-0.1,2.1,0,3.1,0.3c0.8,0.3,1.5,0.8,2,1.4c0.4,0.5,0.5,1,0.5,1.6c0.1,1.3,0,2.6-0.1,3.9c-0.2,1.6-0.3,3.3-0.6,4.9
		c-0.1,0.7-0.2,1.4-0.3,2.1c-0.1,0.6-0.2,1.2-0.4,1.8c-0.2,0.6-0.5,1.2-1,1.6c-0.5,0.4-1.2,0.6-1.8,0.7c-0.5,0-0.9,0-1.4,0
		c-0.6-0.1-1.2-0.4-1.7-0.9c-0.6-0.6-0.9-1.5-1.1-2.3c-0.4-2.1-0.7-4.2-1-6.3C-152.5-19.3-152.6-20.7-152.7-22.1z"/>
	<path id="XMLID_39_" fill="#FEFCFE" d="M-159.9-26.9c-0.1-0.4-0.3-0.7-0.4-1.1c-0.4-1.4-0.5-2.9-0.4-4.3c0-1.7,0.5-3.4,1.3-4.9
		c0.6-1.2,1.5-2.3,2.5-3.3c0.9-0.9,1.9-1.6,2.9-2.2c1-0.6,2.1-1,3.2-1.2c0.7-0.1,1.3-0.2,2-0.2c0.5,0,0.9,0,1.4,0
		c1.8,0,3.4,0.4,5,1.2c3,1.5,5.1,3.8,6.3,6.9c1.1,2.6,1.1,5.3,0.4,8c0,0.1,0,0.2-0.1,0.3c0,0,0,0,0,0c-0.1,0.2-0.1,0.4-0.2,0.6
		c0,0,0,0,0,0c0,0-0.1,0.1-0.1,0.1c0,0,0,0,0,0c-0.1,0.2-0.2,0.4-0.3,0.6c0,0,0,0,0,0c0,0,0,0.1,0,0.1c0,0,0,0,0,0.1
		c-0.1,0.2-0.2,0.4-0.3,0.6c0,0,0,0,0,0c0,0,0,0.1,0,0.1c0,0,0,0,0,0c0,0,0,0,0,0.1c0,0,0,0,0,0c0,0-0.1,0-0.1,0.1c0,0,0,0,0,0
		c-0.1,0-0.1,0.1-0.1,0.2c0,0,0,0,0,0c0,0-0.1,0,0,0.1c-0.6,1.1-1.4,2-2.3,2.8c-0.4,0.4-0.8,0.7-1.3,1.1c-0.1,0.1-0.2,0.1-0.3,0.2
		c-0.1,0.1-0.2,0-0.2-0.1c-0.1-0.3,0-0.7-0.1-1c0-0.4,0-0.9,0-1.3c0-0.2,0.1-0.4,0.2-0.5c0.7-0.8,1.3-1.5,1.8-2.4
		c0.6-1.1,1-2.2,1.2-3.4c0-0.1,0-0.1,0-0.2c0.1-0.1,0.1-0.2,0.1-0.3c0,0,0-0.1,0-0.1c0.2-1.3,0.1-2.5-0.2-3.7
		c-1.2-4.9-6-8.5-11.3-7.8c-3.8,0.6-6.5,2.6-8.1,6.1c-0.4,0.9-0.7,1.9-0.8,2.9c0,0.1,0,0.2,0,0.3c0,0.1,0,0.2,0,0.3
		c0,0.4,0,0.8,0,1.2c0,0,0,0.1,0,0.1c0,0.1,0,0.3,0,0.4c0,0,0,0.1,0,0.1c0.1,0.9,0.4,1.8,0.7,2.7c0.5,1.2,1.2,2.3,2.1,3.3
		c0.4,0.4,0.6,0.9,0.5,1.4c-0.1,0.6,0,1.1-0.1,1.7c0,0.2-0.1,0.3-0.3,0.1c-1.1-0.7-2-1.5-2.8-2.6C-158.7-24.5-159.4-25.7-159.9-26.9
		z"/>
	<path id="XMLID_38_" fill="#FEFCFE" d="M-150.6-29.4c-0.1-0.1-0.1-0.1-0.2-0.2c0,0,0,0,0,0c0,0,0,0,0,0c0,0,0,0-0.1-0.1
		c-0.6-0.6-1-1.2-1.2-2c-0.6-2.2,0.4-4.5,2.5-5.4c1.7-0.7,3.4-0.5,4.9,0.7c1.5,1.2,2,3.2,1.4,4.9c-0.1,0.4-0.3,0.7-0.5,1.1
		c0,0,0,0,0,0c-0.1,0-0.1,0.1-0.1,0.1c0,0,0,0,0,0c-0.1,0.1-0.2,0.2-0.2,0.3c0,0,0,0,0,0c0,0,0,0,0,0c0,0,0,0,0,0c0,0,0,0,0,0
		c0,0,0,0,0,0c0,0,0,0,0,0c0,0,0,0-0.1,0.1c0,0,0,0,0,0c0,0,0,0-0.1,0.1c0,0,0,0,0,0c0,0,0,0,0,0c0,0,0,0,0,0c0,0,0,0,0,0
		c0,0-0.1,0.1-0.1,0.1c0,0,0,0,0,0c0,0-0.1,0-0.1,0.1c0,0,0,0,0,0c0,0,0,0,0,0c0,0,0,0,0,0c-0.1,0-0.1,0-0.1,0.1c0,0,0,0,0,0
		c-0.2,0.1-0.3,0.2-0.5,0.3c0,0,0,0,0,0c0,0-0.1,0-0.1,0c0,0,0,0,0,0c-0.4,0.2-0.9,0.3-1.4,0.4c-0.8,0.1-1.5,0-2.2-0.3
		c0,0,0,0-0.1,0c-0.2-0.1-0.3-0.2-0.5-0.2c0,0,0,0,0,0c0,0-0.1,0-0.1-0.1c0,0,0,0,0,0c0,0-0.1,0-0.1-0.1c0,0,0,0,0,0
		c0-0.1-0.1-0.1-0.2-0.1c0,0,0,0,0,0c-0.1-0.1-0.1-0.1-0.2-0.2c0,0,0,0,0,0c0,0,0,0,0,0C-150.5-29.3-150.5-29.3-150.6-29.4
		C-150.5-29.3-150.6-29.4-150.6-29.4L-150.6-29.4z"/>
</g>
<path id="XMLID_70_" d="M26.6,1C19.6,1,13.1,3.9,8.5,8.5C3.9,13.1,1,19.5,1,26.6v0c0,14.1,11.5,25.6,25.6,25.6h0
	c14.1,0,25.6-11.5,25.6-25.6v0C52.2,12.5,40.8,1,26.6,1z M31.2,37.2c-0.2,1.6-0.3,3.1-0.5,4.7c-0.1,0.7-0.2,1.3-0.3,2
	c-0.1,0.6-0.2,1.2-0.3,1.7c-0.2,0.6-0.5,1.1-0.9,1.5c-0.5,0.4-1.1,0.6-1.8,0.6c-0.4,0-0.9,0-1.3,0c-0.6-0.1-1.2-0.3-1.6-0.8
	c-0.6-0.6-0.9-1.4-1.1-2.2c-0.4-2-0.7-4-0.9-6c-0.2-1.3-0.3-2.7-0.3-4.1c0-0.5,0-1,0.1-1.5c0.1-1,0.7-1.7,1.5-2.1
	c0.7-0.4,1.4-0.6,2.2-0.6c1-0.1,2,0,3,0.3c0.8,0.3,1.4,0.7,2,1.4c0.4,0.4,0.4,1,0.5,1.5C31.4,34.7,31.3,36,31.2,37.2z M16.9,25.1
	c0,0.4,0,0.8,0,1.2c0,0,0,0.1,0,0.1c0,0.1,0,0.3,0,0.4c0,0,0,0.1,0,0.1c0.1,0.9,0.3,1.7,0.7,2.5c0.5,1.2,1.2,2.2,2,3.1
	c0.4,0.4,0.6,0.8,0.5,1.4c0,0.5,0,1.1-0.1,1.6c0,0.2-0.1,0.2-0.3,0.1c-1-0.7-1.9-1.5-2.7-2.4c-0.8-1-1.4-2.1-1.9-3.3
	c-0.1-0.4-0.2-0.7-0.3-1.1c-0.4-1.3-0.4-2.7-0.4-4.1c0-1.7,0.5-3.2,1.3-4.7c0.6-1.2,1.4-2.2,2.4-3.2c0.8-0.8,1.8-1.5,2.8-2.1
	c1-0.5,2-1,3.1-1.2c0.6-0.1,1.3-0.2,1.9-0.2c0.4,0,0.9,0,1.3,0c1.7,0,3.3,0.4,4.8,1.2c2.8,1.4,4.8,3.6,6,6.6c1,2.5,1.1,5.1,0.3,7.7
	c0,0.1,0,0.2-0.1,0.2l0,0c-0.1,0.2-0.1,0.4-0.2,0.6v0C38,29.9,38,30,38,30l0,0c-0.1,0.2-0.2,0.4-0.2,0.6l0,0c0,0,0,0,0,0.1
	c0,0,0,0,0,0.1c-0.1,0.2-0.2,0.4-0.3,0.6l0,0c0,0,0,0.1,0,0.1l0,0c0,0,0,0,0,0v0c0,0,0,0,0,0.1l0,0c0,0-0.1,0.1-0.1,0.1l0,0
	c0,0,0,0,0,0.1c-0.6,1-1.3,1.9-2.2,2.7c-0.4,0.4-0.8,0.7-1.2,1c-0.1,0.1-0.2,0.1-0.3,0.2c-0.1,0.1-0.2,0-0.2-0.1
	c-0.1-0.3-0.1-0.6-0.1-1c0-0.4,0-0.8,0-1.2c0-0.2,0.1-0.3,0.2-0.5c0.6-0.7,1.3-1.5,1.8-2.3c0.6-1,1-2.1,1.2-3.2c0,0,0-0.1,0-0.2
	c0.1-0.1,0.1-0.2,0.1-0.3c0,0,0-0.1,0-0.1c0.2-1.2,0.1-2.4-0.2-3.6c-1.2-4.7-5.7-8.2-10.8-7.4c-3.6,0.5-6.2,2.5-7.7,5.8
	c-0.4,0.9-0.7,1.8-0.8,2.8c0,0.1,0,0.2,0,0.3C16.8,25,16.8,25,16.9,25.1z M31,25.8c-0.1,0.4-0.3,0.7-0.5,1l0,0c0,0-0.1,0.1-0.1,0.1
	v0c-0.1,0.1-0.1,0.1-0.2,0.2l0,0c0,0,0,0,0,0l0,0c0,0,0,0,0,0l0,0c0,0,0,0,0,0c0,0,0,0-0.1,0.1c0,0,0,0,0,0c0,0,0,0-0.1,0.1
	c0,0,0,0,0,0l0,0c0,0,0,0,0,0l0,0c0,0-0.1,0.1-0.1,0.1c0,0,0,0-0.1,0.1l0,0c0,0,0,0,0,0l0,0c0,0-0.1,0-0.1,0.1l0,0
	c-0.2,0.1-0.3,0.2-0.5,0.3h0c0,0-0.1,0-0.1,0l0,0c-0.4,0.1-0.9,0.3-1.3,0.4c-0.7,0.1-1.4,0-2.1-0.3c0,0,0,0,0,0
	c-0.2-0.1-0.3-0.2-0.5-0.2l0,0c0,0-0.1,0-0.1,0h0c0,0,0,0-0.1-0.1h0c0,0-0.1-0.1-0.2-0.1c0-0.1-0.1-0.1-0.2-0.1l0,0c0,0,0,0,0,0
	c0,0,0,0,0,0c0,0,0,0-0.1-0.1l0,0c-0.1-0.1-0.1-0.1-0.2-0.2l0,0c0,0,0,0,0,0c0,0,0,0-0.1-0.1c-0.5-0.5-1-1.1-1.2-1.9
	c-0.6-2.1,0.3-4.3,2.4-5.1c1.6-0.7,3.3-0.4,4.7,0.7C31,22.2,31.5,24.1,31,25.8z M44.7,27.3c0,0.1,0,0.1,0,0.2
	c-0.1,2.3-0.8,4.4-1.9,6.4c-0.9,1.8-2.1,3.4-3.6,4.9c-1.2,1.2-2.7,2.2-4.2,3c-0.7,0.4-1.4,0.7-2.1,1.1c0,0-0.1,0-0.1,0
	c-0.4,0.2-0.5,0.1-0.5-0.3c0-0.5,0.1-1,0.2-1.5c0.1-0.6,0.5-0.8,1-1c0.8-0.3,1.4-0.8,2-1.2c0.4-0.3,0.9-0.6,1.3-1
	c0.3-0.2,0.5-0.4,0.7-0.7c0.6-0.6,1.2-1.1,1.6-1.8c1-1.4,1.8-2.8,2.4-4.4c0.2-0.5,0.4-0.9,0.4-1.4c0.1-0.1,0.1-0.3,0.2-0.4
	c0.1-0.6,0.2-1.3,0.2-1.9c0.1-1.6,0.1-3.1-0.2-4.7c-0.4-2-1.2-3.8-2.3-5.6c-0.9-1.3-2-2.5-3.2-3.5c-1-0.8-2.1-1.5-3.2-2.1
	c-1.9-0.9-4-1.4-6.2-1.5c-1.2,0-2.5,0-3.7,0.2c-2.9,0.5-5.4,1.9-7.6,3.9c-1.7,1.5-2.9,3.3-3.9,5.3c-0.5,1.2-1,2.4-1.1,3.8
	c-0.2,1.6-0.2,3.3,0,4.9c0.1,1,0.3,1.9,0.7,2.9c0.3,1,0.8,1.9,1.3,2.8c0.6,1.1,1.4,2.1,2.3,3c1.4,1.5,3,2.6,4.8,3.5
	c0.4,0.2,0.6,0.5,0.7,0.8c0.1,0.5,0.2,1,0.2,1.6c0,0.3-0.1,0.4-0.4,0.3c-1-0.4-1.9-0.8-2.8-1.3c-1.1-0.6-2.2-1.4-3.2-2.3
	c-1.7-1.5-3-3.2-4.1-5.3c-0.8-1.5-1.3-3-1.6-4.6c0,0,0-0.1,0-0.1c-0.1-0.1,0-0.3-0.1-0.4v0c0-0.2,0-0.5-0.1-0.7c0-0.7,0-1.5-0.1-2.2
	c0-1.5,0-2.9,0.4-4.4c0.4-1.7,1-3.3,1.9-4.8c0.5-1,1.2-1.9,1.9-2.7c0.5-0.6,1-1.1,1.5-1.6c0.8-0.7,1.6-1.4,2.4-1.9
	c1.1-0.8,2.3-1.4,3.6-1.9c2.4-0.9,4.9-1.2,7.5-1.1c2.1,0.1,4,0.6,6,1.4c1.7,0.7,3.3,1.7,4.7,2.9c3.1,2.7,5.2,6,6.1,10
	c0.2,0.8,0.3,1.6,0.3,2.4C44.8,25.2,44.8,26.2,44.7,27.3z"/>
<path id="XMLID_219_" fill="#C160EB" d="M-265-136.7c0.9,0.3,1.8,0.5,2.8,0.3c0.6-0.1,1.2-0.3,1.7-0.5c-0.3,0.3-0.7,0.3-1.1,0.4
	c-1,0.3-2.1,0.2-3.1-0.1C-264.8-136.5-264.9-136.6-265-136.7z"/>
<path id="XMLID_218_" fill="#C160EB" d="M-260.4-136.9c0.2-0.1,0.4-0.3,0.7-0.4C-259.8-137-260.1-136.9-260.4-136.9z"/>
<path id="XMLID_217_" fill="#C160EB" d="M-249-132.7c0.1-0.3,0.3-0.5,0.4-0.8C-248.7-133.2-248.8-132.9-249-132.7z"/>
<path id="XMLID_216_" fill="#C160EB" d="M-248.5-133.7c0.1-0.3,0.2-0.5,0.3-0.8C-248.3-134.2-248.3-133.9-248.5-133.7z"/>
<path id="XMLID_215_" fill="#C160EB" d="M-248.1-134.7c0.1-0.3,0.2-0.5,0.3-0.8C-247.9-135.2-248-134.9-248.1-134.7z"/>
<path id="XMLID_214_" fill="#C160EB" d="M-265.7-137c0.2,0.1,0.4,0.2,0.6,0.3C-265.3-136.8-265.6-136.8-265.7-137z"/>
<path id="XMLID_213_" fill="#C160EB" d="M-258.6-138.2c0.1-0.1,0.1-0.2,0.3-0.3C-258.4-138.4-258.5-138.3-258.6-138.2z"/>
<path id="XMLID_212_" fill="#C160EB" d="M-266.4-137.5c0.1,0,0.2,0.1,0.3,0.2C-266.3-137.3-266.4-137.3-266.4-137.5z"/>
<path id="XMLID_211_" fill="#C160EB" d="M-250.4-138.4c0,0.1,0,0.2-0.1,0.3C-250.5-138.2-250.5-138.3-250.4-138.4z"/>
<path id="XMLID_210_" fill="#C160EB" d="M-249.3-132.2c0-0.1,0-0.1,0.1-0.2C-249.2-132.3-249.3-132.2-249.3-132.2z"/>
<path id="XMLID_209_" fill="#C160EB" d="M-259.7-137.3c0-0.1,0.1-0.1,0.2-0.1C-259.5-137.3-259.6-137.3-259.7-137.3z"/>
<path id="XMLID_208_" fill="#C160EB" d="M-266.2-137.3c0.1,0,0.1,0.1,0.2,0.1C-266.1-137.2-266.2-137.2-266.2-137.3z"/>
<path id="XMLID_207_" fill="#C160EB" d="M-258.4-138.6c0-0.1,0.1-0.1,0.1-0.2C-258.3-138.7-258.3-138.6-258.4-138.6z"/>
<polygon id="XMLID_206_" fill="#C160EB" points="-239.6,-134.8 -239.6,-134.7 -239.7,-134.7 "/>
<path id="XMLID_205_" fill="#C160EB" d="M-248.2-134.5c0-0.1,0-0.1,0.1-0.2C-248.1-134.6-248.2-134.5-248.2-134.5z"/>
<path id="XMLID_204_" fill="#C160EB" d="M-259.3-137.6c0,0,0.1-0.1,0.1-0.1C-259.2-137.6-259.3-137.6-259.3-137.6z"/>
<path id="XMLID_203_" fill="#C160EB" d="M-266-137.2c0,0,0.1,0,0.1,0.1C-265.9-137.1-265.9-137.1-266-137.2z"/>
<path id="XMLID_202_" fill="#C160EB" d="M-260.5-136.8c0,0,0.1-0.1,0.1-0.1C-260.4-136.9-260.5-136.8-260.5-136.8z"/>
<path id="XMLID_201_" fill="#C160EB" d="M-266.6-137.6C-266.6-137.6-266.6-137.6-266.6-137.6C-266.6-137.6-266.6-137.6-266.6-137.6z
	"/>
<path id="XMLID_200_" fill="#C160EB" d="M-248.6-133.6c0-0.1,0-0.1,0.1-0.1C-248.6-133.6-248.6-133.6-248.6-133.6z"/>
<path id="XMLID_199_" fill="#C160EB" d="M-259.4-137.5c0,0,0.1-0.1,0.1-0.1C-259.4-137.5-259.4-137.5-259.4-137.5z"/>
<path id="XMLID_198_" fill="#C160EB" d="M-265.8-137.1c0,0,0.1,0,0.1,0.1C-265.8-137-265.8-137.1-265.8-137.1z"/>
<path id="XMLID_197_" fill="#C160EB" d="M-249.2-132.4c0,0,0-0.1,0.1-0.1C-249.2-132.4-249.2-132.4-249.2-132.4z"/>
<path id="XMLID_196_" fill="#C160EB" d="M-249.4-132c0,0,0-0.1,0.1-0.1C-249.4-132.1-249.4-132.1-249.4-132z"/>
<path id="XMLID_195_" fill="#C160EB" d="M-249.1-132.6c0,0,0-0.1,0.1-0.1C-249.1-132.6-249.1-132.6-249.1-132.6z"/>
<path id="XMLID_194_" fill="#C160EB" d="M-259-137.9C-259-137.9-258.9-137.9-259-137.9C-258.9-137.9-259-137.9-259-137.9z"/>
<path id="XMLID_193_" fill="#C160EB" d="M-266.5-137.5C-266.5-137.5-266.5-137.5-266.5-137.5C-266.5-137.5-266.5-137.5-266.5-137.5z
	"/>
<path id="XMLID_192_" fill="#C160EB" d="M-259.5-137.4C-259.5-137.4-259.5-137.5-259.5-137.4C-259.5-137.5-259.5-137.4-259.5-137.4z
	"/>
<path id="XMLID_191_" fill="#C160EB" d="M-249.1-132.5C-249.1-132.5-249.1-132.5-249.1-132.5C-249.1-132.5-249.1-132.5-249.1-132.5z
	"/>
<path id="XMLID_190_" fill="#C160EB" d="M-258.8-138C-258.8-138.1-258.8-138.1-258.8-138C-258.8-138.1-258.8-138.1-258.8-138z"/>
<path id="XMLID_189_" fill="#C160EB" d="M-258.8-138.1C-258.8-138.1-258.7-138.1-258.8-138.1C-258.7-138.1-258.7-138.1-258.8-138.1z
	"/>
<path id="XMLID_188_" fill="#C160EB" d="M-259.2-137.7C-259.2-137.7-259.1-137.7-259.2-137.7C-259.1-137.7-259.2-137.7-259.2-137.7z
	"/>
<path id="XMLID_187_" fill="#C160EB" d="M-258.7-138.2C-258.7-138.2-258.7-138.2-258.7-138.2C-258.7-138.2-258.7-138.2-258.7-138.2z
	"/>
<path id="XMLID_186_" fill="#C160EB" d="M-259.1-137.8C-259.1-137.8-259.1-137.8-259.1-137.8C-259.1-137.8-259.1-137.8-259.1-137.8z
	"/>
<path id="XMLID_185_" fill="#953DCC" d="M-239.4-138.2c0.1-1.4,0.1-2.8,0-4.1c0.1,0.1,0.1,0.1,0.1,0.2c0,0.7,0,1.4,0,2.1
	c0,0.5,0,1,0,1.5C-239.3-138.4-239.2-138.3-239.4-138.2z"/>
<path id="XMLID_184_" fill="#953DCC" d="M-287.2-137c0.1,0.3,0.1,0.6,0.1,0.9C-287.2-136.4-287.2-136.7-287.2-137z"/>
<path id="XMLID_183_" fill="#953DCC" d="M-287-136c0.1,0.2,0,0.4,0.1,0.6C-287.1-135.6-287-135.8-287-136z"/>
<path id="XMLID_182_" fill="#953DCC" d="M-276.2-141c0.2,0.2,0.2,1.3,0,1.6C-276.2-139.9-276.2-140.5-276.2-141z"/>
<path id="XMLID_181_" fill="#953DCC" d="M-276.2-139.2c0.2,0.2,0.1,0.4,0.1,0.5C-276.2-138.9-276.2-139-276.2-139.2z"/>
<path id="XMLID_180_" fill="#953DCC" d="M-276.1-141.7c0,0.1,0.1,0.3,0,0.4C-276.2-141.4-276.1-141.6-276.1-141.7z"/>
<path id="XMLID_179_" fill="#953DCC" d="M-267.1-138C-267-138-267-138-267.1-138c0.1,0.1,0.1,0.1,0.1,0.1c0,0,0,0,0,0
	c0,0.1-0.1,0.2-0.2,0.1C-267.2-137.8-267.2-137.9-267.1-138z"/>
<polygon id="XMLID_178_" fill="#953DCC" points="-267.8,-138.2 -267.8,-138.2 -267.8,-138.2 "/>
<path id="XMLID_177_" fill="#C160EB" d="M-266.9-137.9C-266.9-137.9-267-137.9-266.9-137.9C-267-137.9-266.9-137.9-266.9-137.9z"/>
</svg>
