<?xml version="1.0" encoding="iso-8859-1"?>
<!-- Generator: Adobe Illustrator 19.0.0, SVG Export Plug-In . SVG Version: 6.00 Build 0)  -->
<svg version="1.1" id="Capa_1" xmlns="http://www.w3.org/2000/svg" xmlns:xlink="http://www.w3.org/1999/xlink" x="0px" y="0px"
	 viewBox="0 0 480 480" style="enable-background:new 0 0 480 480;" xml:space="preserve">
<g>
	<g>
		<path d="M112,192H96v32h16c8.832,0,16-7.168,16-16C128,199.168,120.832,192,112,192z"/>
	</g>
</g>
<g>
	<g>
		<path d="M112,256H96v32h16c8.832,0,16-7.168,16-16C128,263.168,120.832,256,112,256z"/>
	</g>
</g>
<g>
	<g>
		<path d="M448,64H32C14.368,64,0,78.368,0,96v288c0,17.664,14.368,32,32,32h416c17.664,0,32-14.336,32-32V96
			C480,78.368,465.664,64,448,64z M160,272c0,26.464-21.536,48-48,48H80c-8.832,0-16-7.168-16-16V176c0-8.832,7.168-16,16-16h32
			c26.464,0,48,21.536,48,48c0,12.352-4.8,23.488-12.48,32C155.2,248.512,160,259.648,160,272z M288,272c0,26.464-21.536,48-48,48
			s-48-21.536-48-48v-96c0-8.832,7.168-16,16-16c8.832,0,16,7.168,16,16v96c0,8.832,7.168,16,16,16c8.832,0,16-7.168,16-16v-96
			c0-8.832,7.168-16,16-16c8.832,0,16,7.168,16,16V272z M414.304,183.168L384,243.776V304c0,8.832-7.168,16-16,16
			c-8.832,0-16-7.168-16-16v-60.224l-30.304-60.64c-3.936-7.904-0.736-17.504,7.168-21.472c7.904-3.936,17.504-0.768,21.472,7.168
			L368,204.224l17.696-35.36c3.968-7.936,13.568-11.04,21.472-7.168C415.072,165.632,418.24,175.264,414.304,183.168z"/>
	</g>
</g>
<g>
</g>
<g>
</g>
<g>
</g>
<g>
</g>
<g>
</g>
<g>
</g>
<g>
</g>
<g>
</g>
<g>
</g>
<g>
</g>
<g>
</g>
<g>
</g>
<g>
</g>
<g>
</g>
<g>
</g>
</svg>
