<?xml version="1.0" encoding="utf-8"?>
<!-- Generator: Adobe Illustrator 19.0.0, SVG Export Plug-In . SVG Version: 6.00 Build 0)  -->
<svg version="1.1" id="Layer_1" xmlns="http://www.w3.org/2000/svg" xmlns:xlink="http://www.w3.org/1999/xlink" x="0px" y="0px"
	 viewBox="0 0 612 612" style="enable-background:new 0 0 612 612;" xml:space="preserve">
<style type="text/css">
	.st0{fill:none;stroke:#0A0A0A;stroke-width:20.9368;stroke-miterlimit:10;}
</style>
<g id="XMLID_1_">
	<path id="XMLID_305_" class="st0" d="M305.9,600.3h0.3c162.5,0,294.2-131.7,294.2-294.2V306c0-162.6-131.8-294.3-294.3-294.3h0
		C143.4,11.7,11.7,143.4,11.7,306v0.1C11.7,468.6,143.4,600.3,305.9,600.3z"/>
	<path id="facebook_12_" d="M333.7,492.8V329.7h54.8l8.2-63.6h-63v-40.6c0-18.4,5.1-31,31.5-31l33.7,0v-56.9
		c-5.8-0.8-25.8-2.5-49.1-2.5c-48.5,0-81.8,29.6-81.8,84v46.9h-54.9v63.6H268v163.1H333.7z"/>
</g>
</svg>
