<?xml version="1.0" encoding="utf-8"?>
<!-- Generator: Adobe Illustrator 19.0.0, SVG Export Plug-In . SVG Version: 6.00 Build 0)  -->
<svg version="1.1" id="Layer_1" xmlns="http://www.w3.org/2000/svg" xmlns:xlink="http://www.w3.org/1999/xlink" x="0px" y="0px"
	 viewBox="0 0 53.3 53.3" enable-background="new 0 0 53.3 53.3" xml:space="preserve">
<path id="XMLID_951_" d="M-208.4,1.6c-7.1,0-13.5,2.9-18.1,7.5c-4.6,4.6-7.5,11-7.5,18.1v0c0,14.1,11.5,25.6,25.6,25.6h0
	c14.1,0,25.6-11.5,25.6-25.6v0C-182.8,13.1-194.3,1.6-208.4,1.6z M-194.3,37.3l-4.3,0.1c0,0-0.9,0.2-2.2-0.6c-1.6-1.1-3.1-4-4.3-3.6
	c-1.2,0.4-1.2,3-1.2,3s0,0.6-0.3,0.9c-0.3,0.3-0.9,0.4-0.9,0.4h-1.9c0,0-4.3,0.3-8.1-3.7c-4.1-4.3-7.8-12.8-7.8-12.8s-0.2-0.6,0-0.8
	c0.3-0.3,0.9-0.3,0.9-0.3l4.6,0c0,0,0.4,0.1,0.8,0.3c0.3,0.2,0.4,0.5,0.4,0.5s0.8,1.9,1.8,3.6c1.9,3.3,2.8,4.1,3.5,3.7
	c1-0.5,0.7-4.7,0.7-4.7s0-1.5-0.5-2.2c-0.4-0.5-1.1-0.7-1.4-0.7c-0.3,0,0.2-0.6,0.7-0.9c0.8-0.4,2.3-0.4,4.1-0.4
	c1.4,0,1.8,0.1,2.3,0.2c1.6,0.4,1.1,1.9,1.1,5.5c0,1.1-0.2,2.8,0.6,3.3c0.4,0.2,1.2,0,3.4-3.7c1-1.8,1.8-3.8,1.8-3.8
	s0.2-0.4,0.4-0.5c0.3-0.2,0.6-0.1,0.6-0.1l4.9,0c0,0,1.5-0.2,1.7,0.5c0.3,0.7-0.6,2.3-2.5,5c-3.3,4.4-3.6,4-0.9,6.5
	c2.6,2.4,3.1,3.6,3.2,3.7C-192,37.2-194.3,37.3-194.3,37.3z"/>
<path id="XMLID_961_" d="M26.6,1C19.6,1,13.1,3.9,8.5,8.5C3.9,13.2,1,19.6,1,26.6v0c0,14.1,11.5,25.6,25.6,25.6h0
	c14.1,0,25.6-11.5,25.6-25.6v0C52.2,12.5,40.8,1,26.6,1z M34.7,16.9h-2.9c-2.3,0-2.7,1.1-2.7,2.7v3.5h5.5l-0.7,5.5H29v14.2h-5.7
	V28.7h-4.8v-5.5h4.8v-4.1c0-4.7,2.9-7.3,7.1-7.3c2,0,3.8,0.2,4.3,0.2V16.9z"/>
<path id="XMLID_940_" d="M88.3-63.8c-7.1,0-13.5,2.9-18.1,7.5c-4.6,4.6-7.5,11-7.5,18.1v0c0,14.1,11.5,25.6,25.6,25.6h0
	c14.1,0,25.6-11.5,25.6-25.6v0C113.9-52.4,102.5-63.8,88.3-63.8z M100.4-43.7c0,0.3,0,0.5,0,0.8c0,7.6-5.8,16.4-16.4,16.4
	c-3.3,0-6.3-1-8.9-2.6C75.6-29,76-29,76.5-29c2.7,0,5.2-0.9,7.2-2.5c-2.5,0-4.7-1.7-5.4-4c0.4,0.1,0.7,0.1,1.1,0.1
	c0.5,0,1-0.1,1.5-0.2c-2.6-0.5-4.6-2.9-4.6-5.7v-0.1c0.8,0.4,1.7,0.7,2.6,0.7c-1.6-1-2.6-2.8-2.6-4.8c0-1,0.3-2,0.8-2.9
	c2.9,3.5,7.1,5.8,11.9,6c-0.1-0.4-0.1-0.9-0.1-1.3c0-3.2,2.6-5.8,5.8-5.8c1.7,0,3.2,0.7,4.2,1.8c1.3-0.3,2.6-0.7,3.7-1.4
	c-0.4,1.3-1.3,2.5-2.5,3.2c1.2-0.1,2.3-0.4,3.3-0.9C102.5-45.5,101.5-44.5,100.4-43.7z"/>
<path id="XMLID_965_" d="M-36.4,73.6c-0.1-1.3-0.3-2-0.4-2.4c-0.2-0.6-0.5-1.1-1-1.5c-0.5-0.5-0.9-0.7-1.5-1
	c-0.5-0.2-1.2-0.4-2.4-0.4c-1.4-0.1-1.8-0.1-5.3-0.1c-3.5,0-3.9,0-5.3,0.1c-1.3,0.1-2,0.3-2.4,0.4c-0.6,0.2-1.1,0.5-1.5,1
	c-0.5,0.5-0.7,0.9-1,1.5c-0.2,0.5-0.4,1.2-0.4,2.4c-0.1,1.4-0.1,1.8-0.1,5.3c0,3.5,0,3.9,0.1,5.3c0.1,1.3,0.3,2,0.4,2.4
	c0.2,0.6,0.5,1.1,1,1.5c0.5,0.5,0.9,0.8,1.5,1c0.5,0.2,1.2,0.4,2.4,0.5c1.4,0.1,1.8,0.1,5.3,0.1c3.5,0,3.9,0,5.3-0.1
	c1.3-0.1,2-0.3,2.4-0.5c0.6-0.2,1.1-0.5,1.5-1c0.5-0.5,0.8-0.9,1-1.5c0.2-0.5,0.4-1.2,0.4-2.4c0.1-1.4,0.1-1.8,0.1-5.3
	C-36.4,75.4-36.4,74.9-36.4,73.6z M-47.1,85.6c-3.7,0-6.8-3-6.8-6.7c0-3.7,3-6.7,6.8-6.7c3.7,0,6.7,3,6.7,6.7
	C-40.4,82.6-43.4,85.6-47.1,85.6z M-40.1,73.4c-0.9,0-1.6-0.7-1.6-1.6s0.7-1.6,1.6-1.6c0.9,0,1.6,0.7,1.6,1.6S-39.3,73.4-40.1,73.4z
	 M-47.1,74.5c-2.4,0-4.4,2-4.4,4.4c0,2.4,2,4.4,4.4,4.4c2.4,0,4.4-2,4.4-4.4C-42.8,76.4-44.7,74.5-47.1,74.5z M-36.4,73.6
	c-0.1-1.3-0.3-2-0.4-2.4c-0.2-0.6-0.5-1.1-1-1.5c-0.5-0.5-0.9-0.7-1.5-1c-0.5-0.2-1.2-0.4-2.4-0.4c-1.4-0.1-1.8-0.1-5.3-0.1
	c-3.5,0-3.9,0-5.3,0.1c-1.3,0.1-2,0.3-2.4,0.4c-0.6,0.2-1.1,0.5-1.5,1c-0.5,0.5-0.7,0.9-1,1.5c-0.2,0.5-0.4,1.2-0.4,2.4
	c-0.1,1.4-0.1,1.8-0.1,5.3c0,3.5,0,3.9,0.1,5.3c0.1,1.3,0.3,2,0.4,2.4c0.2,0.6,0.5,1.1,1,1.5c0.5,0.5,0.9,0.8,1.5,1
	c0.5,0.2,1.2,0.4,2.4,0.5c1.4,0.1,1.8,0.1,5.3,0.1c3.5,0,3.9,0,5.3-0.1c1.3-0.1,2-0.3,2.4-0.5c0.6-0.2,1.1-0.5,1.5-1
	c0.5-0.5,0.8-0.9,1-1.5c0.2-0.5,0.4-1.2,0.4-2.4c0.1-1.4,0.1-1.8,0.1-5.3C-36.4,75.4-36.4,74.9-36.4,73.6z M-47.1,85.6
	c-3.7,0-6.8-3-6.8-6.7c0-3.7,3-6.7,6.8-6.7c3.7,0,6.7,3,6.7,6.7C-40.4,82.6-43.4,85.6-47.1,85.6z M-40.1,73.4
	c-0.9,0-1.6-0.7-1.6-1.6s0.7-1.6,1.6-1.6c0.9,0,1.6,0.7,1.6,1.6S-39.3,73.4-40.1,73.4z M-47.1,74.5c-2.4,0-4.4,2-4.4,4.4
	c0,2.4,2,4.4,4.4,4.4c2.4,0,4.4-2,4.4-4.4C-42.8,76.4-44.7,74.5-47.1,74.5z M-47.1,53.3c-7.1,0-13.5,2.9-18.1,7.5
	c-4.6,4.6-7.5,11-7.5,18.1v0c0,14.1,11.5,25.6,25.6,25.6h0c14.1,0,25.6-11.5,25.6-25.6v0C-21.5,64.7-33,53.3-47.1,53.3z M-34.1,84.3
	c-0.1,1.4-0.3,2.4-0.6,3.2c-0.3,0.9-0.8,1.6-1.5,2.3c-0.7,0.7-1.5,1.2-2.3,1.5c-0.8,0.3-1.8,0.5-3.2,0.6c-1.4,0.1-1.9,0.1-5.4,0.1
	c-3.6,0-4,0-5.4-0.1c-1.4-0.1-2.3-0.3-3.2-0.6c-0.9-0.3-1.6-0.8-2.3-1.5c-0.7-0.7-1.2-1.5-1.5-2.3c-0.3-0.8-0.5-1.8-0.6-3.2
	c-0.1-1.4-0.1-1.8-0.1-5.4s0-4,0.1-5.4c0.1-1.4,0.3-2.3,0.6-3.2c0.3-0.9,0.8-1.6,1.5-2.3c0.7-0.7,1.5-1.2,2.3-1.5
	c0.8-0.3,1.8-0.6,3.2-0.6c1.4-0.1,1.9-0.1,5.4-0.1c3.6,0,4,0,5.4,0.1c1.4,0.1,2.4,0.3,3.2,0.6c0.9,0.3,1.6,0.8,2.3,1.5
	c0.7,0.7,1.2,1.5,1.5,2.3c0.3,0.8,0.6,1.8,0.6,3.2c0.1,1.4,0.1,1.9,0.1,5.4S-34,82.9-34.1,84.3z M-36.9,71.1c-0.2-0.6-0.5-1.1-1-1.5
	c-0.5-0.5-0.9-0.7-1.5-1c-0.5-0.2-1.2-0.4-2.4-0.4c-1.4-0.1-1.8-0.1-5.3-0.1c-3.5,0-3.9,0-5.3,0.1c-1.3,0.1-2,0.3-2.4,0.4
	c-0.6,0.2-1.1,0.5-1.5,1c-0.5,0.5-0.7,0.9-1,1.5c-0.2,0.5-0.4,1.2-0.4,2.4c-0.1,1.4-0.1,1.8-0.1,5.3c0,3.5,0,3.9,0.1,5.3
	c0.1,1.3,0.3,2,0.4,2.4c0.2,0.6,0.5,1.1,1,1.5c0.5,0.5,0.9,0.8,1.5,1c0.5,0.2,1.2,0.4,2.4,0.5c1.4,0.1,1.8,0.1,5.3,0.1
	c3.5,0,3.9,0,5.3-0.1c1.3-0.1,2-0.3,2.4-0.5c0.6-0.2,1.1-0.5,1.5-1c0.5-0.5,0.8-0.9,1-1.5c0.2-0.5,0.4-1.2,0.4-2.4
	c0.1-1.4,0.1-1.8,0.1-5.3c0-3.5,0-3.9-0.1-5.3C-36.5,72.3-36.7,71.6-36.9,71.1z M-47.1,85.6c-3.7,0-6.8-3-6.8-6.7
	c0-3.7,3-6.7,6.8-6.7c3.7,0,6.7,3,6.7,6.7C-40.4,82.6-43.4,85.6-47.1,85.6z M-40.1,73.4c-0.9,0-1.6-0.7-1.6-1.6s0.7-1.6,1.6-1.6
	c0.9,0,1.6,0.7,1.6,1.6S-39.3,73.4-40.1,73.4z M-47.1,74.5c-2.4,0-4.4,2-4.4,4.4c0,2.4,2,4.4,4.4,4.4c2.4,0,4.4-2,4.4-4.4
	C-42.8,76.4-44.7,74.5-47.1,74.5z"/>
<polygon id="XMLID_964_" points="8.4,-42.4 16.5,-38.2 8.4,-34 "/>
<path id="XMLID_970_" d="M11.4-63.8C4.4-63.8-2-61-6.7-56.3c-4.6,4.6-7.5,11-7.5,18.1v0c0,14.1,11.5,25.6,25.6,25.6h0
	C25.6-12.6,37-24.1,37-38.2v0C37-52.4,25.6-63.8,11.4-63.8z M26.3-30.8c-0.4,1.6-1.7,2.8-3.3,3c-3.8,0.4-7.6,0.4-11.4,0.4
	c-3.8,0-7.6,0-11.4-0.4c-1.6-0.2-2.9-1.4-3.3-3c-0.5-2.3-0.5-4.8-0.5-7.2s0-4.9,0.5-7.2c0.4-1.6,1.7-2.8,3.3-3
	c3.8-0.4,7.6-0.4,11.4-0.4s7.6,0,11.4,0.4c1.6,0.2,2.9,1.4,3.3,3c0.5,2.3,0.5,4.8,0.5,7.2S26.9-33.1,26.3-30.8z"/>
<path id="XMLID_1009_" d="M187.4-56.3c-4.6-4.6-11-7.5-18.1-7.5c-14.1,0-25.6,11.5-25.6,25.6c0,7.1,2.9,13.5,7.5,18.1
	c4.6,4.6,11,7.5,18.1,7.5h0c14.1,0,25.6-11.5,25.6-25.6C194.9-45.3,192.1-51.7,187.4-56.3z M148.7-32.1c0,0.1-0.1,0.2-0.2,0.2
	c-0.1,0-0.2-0.1-0.2-0.2l-0.3-2.4l0.3-2.4c0-0.1,0.1-0.2,0.2-0.2c0.1,0,0.2,0.1,0.2,0.2l0.4,2.4L148.7-32.1z M150.3-30.6
	c0,0.1-0.1,0.2-0.2,0.2c-0.1,0-0.2-0.1-0.2-0.2l-0.4-3.8l0.4-3.9c0-0.1,0.1-0.2,0.2-0.2c0.1,0,0.2,0.1,0.2,0.2l0.5,3.9L150.3-30.6z
	 M152-30c0,0.1-0.1,0.2-0.2,0.2c-0.1,0-0.2-0.1-0.2-0.2l-0.4-4.5l0.4-4.6c0-0.1,0.1-0.2,0.2-0.2c0.1,0,0.2,0.1,0.2,0.2l0.4,4.6
	L152-30z M153.8-29.9c0,0.1-0.1,0.3-0.3,0.3c-0.1,0-0.2-0.1-0.3-0.3l-0.4-4.6l0.4-4.7c0-0.1,0.1-0.3,0.3-0.3c0.1,0,0.3,0.1,0.3,0.3
	l0.4,4.7L153.8-29.9z M155.5-29.8c0,0.2-0.1,0.3-0.3,0.3c-0.1,0-0.3-0.1-0.3-0.3l-0.4-4.6l0.4-4.4c0-0.2,0.1-0.3,0.3-0.3
	c0.2,0,0.3,0.1,0.3,0.3l0.4,4.4L155.5-29.8z M157.3-29.8c0,0.2-0.2,0.3-0.3,0.3c-0.2,0-0.3-0.1-0.3-0.3l-0.3-4.6l0.3-7.1
	c0-0.2,0.1-0.3,0.3-0.3c0.2,0,0.3,0.1,0.3,0.3l0.4,7.1L157.3-29.8z M159.1-29.9c0,0.2-0.2,0.4-0.4,0.4c-0.2,0-0.4-0.2-0.4-0.4
	l-0.3-4.6l0.3-8.8c0-0.2,0.2-0.4,0.4-0.4c0.2,0,0.3,0.2,0.4,0.4l0.4,8.8L159.1-29.9z M160.9-29.9c0,0.2-0.2,0.4-0.4,0.4
	c-0.2,0-0.4-0.2-0.4-0.4l-0.3-4.5l0.3-9.5c0-0.2,0.2-0.4,0.4-0.4s0.4,0.2,0.4,0.4l0.3,9.5L160.9-29.9z M162.7-29.9
	c0,0.2-0.2,0.4-0.4,0.4c-0.2,0-0.4-0.2-0.4-0.4l-0.3-4.5l0.3-9.8c0-0.3,0.2-0.4,0.4-0.4s0.4,0.2,0.4,0.4l0.3,9.8L162.7-29.9z
	 M164.6-30c0,0.3-0.2,0.5-0.5,0.5s-0.5-0.2-0.5-0.5l-0.3-4.5l0.3-9.6c0-0.3,0.2-0.5,0.5-0.5s0.5,0.2,0.5,0.5l0.3,9.6L164.6-30z
	 M166.4-30c0,0.3-0.2,0.5-0.5,0.5s-0.5-0.2-0.5-0.5l-0.2-4.5l0.2-9.3c0-0.3,0.2-0.5,0.5-0.5s0.5,0.2,0.5,0.5l0.3,9.3L166.4-30z
	 M168.3-30c0,0.3-0.3,0.6-0.5,0.6c-0.3,0-0.6-0.3-0.6-0.6l-0.2-4.4l0.2-11c0-0.3,0.3-0.5,0.6-0.5c0.3,0,0.5,0.3,0.5,0.5l0.2,11
	L168.3-30z M170.2-30.1c0,0.3-0.3,0.6-0.6,0.6c-0.3,0-0.6-0.3-0.6-0.6l-0.2-4.4l0.2-12c0-0.3,0.3-0.6,0.6-0.6c0.3,0,0.6,0.3,0.6,0.6
	l0.3,12L170.2-30.1z M186-29.5c-0.1,0-14.8,0-14.8,0c-0.3,0-0.6-0.3-0.6-0.6V-47c0-0.3,0.1-0.5,0.5-0.6c1-0.4,2.2-0.6,3.4-0.6
	c4.9,0,8.9,3.8,9.4,8.6c0.6-0.3,1.3-0.4,2.1-0.4c2.9,0,5.3,2.4,5.3,5.3S189-29.5,186-29.5z"/>
<path id="XMLID_990_" d="M326.8-63.8c-7.1,0-13.5,2.9-18.1,7.5c-4.6,4.6-7.5,11-7.5,18.1v0c0,14.1,11.5,25.6,25.6,25.6h0
	c14.1,0,25.6-11.5,25.6-25.6v0C352.4-52.4,341-63.8,326.8-63.8z M339-26.5c-0.4,0.8-1.4,1-2.2,0.5c-2-1.2-4.1-2.1-6.4-2.7
	c-3-0.7-6-0.9-9-0.7c-2.2,0.1-4.4,0.5-6.5,1c-1.1,0.3-2.1-0.5-2.1-1.5c0-0.8,0.5-1.4,1.4-1.6c0.9-0.2,1.9-0.4,2.8-0.5
	c2.3-0.4,4.6-0.6,7-0.6c3.9,0,7.7,0.7,11.3,2.3c1.1,0.5,2.1,1,3.1,1.6C339.2-28.2,339.5-27.3,339-26.5z M341.6-32.9
	c-0.6,0.6-1.5,0.6-2.3,0.2c-3-1.8-6.2-2.9-9.6-3.5c-2.8-0.5-5.7-0.7-8.5-0.5c-2.4,0.1-4.7,0.5-6.9,1.2c-1.1,0.3-2.1-0.3-2.4-1.4
	c-0.3-1.1,0.3-2.1,1.3-2.5c2.4-0.7,4.8-1.2,7.3-1.3c0.9-0.1,1.9-0.1,3.2-0.2c1.3,0.1,3.1,0.2,4.8,0.4c4.5,0.6,8.8,1.9,12.8,4.3
	C342.6-35.4,342.7-33.8,341.6-32.9z M345.8-41.8c-0.4,1.1-1.4,1.8-2.5,1.7c-0.3,0-0.7-0.2-1-0.3c-2.9-1.7-6-2.7-9.3-3.3
	c-3.6-0.7-7.2-1-10.8-0.9c-3.1,0.1-6.1,0.5-9,1.3c-1.3,0.4-2.6-0.3-3-1.6c-0.4-1.3,0.3-2.6,1.6-3c1.7-0.5,3.4-0.8,5.1-1.1
	c2.3-0.4,4.6-0.5,7-0.5c5.3,0,10.4,0.7,15.4,2.4c1.9,0.7,3.8,1.5,5.5,2.5C345.7-44,346.1-42.9,345.8-41.8z"/>
<path id="XMLID_984_" d="M248.3-63.8c-7.1,0-13.5,2.9-18.1,7.5c-4.6,4.6-7.5,11-7.5,18.1v0c0,14.1,11.5,25.6,25.6,25.6h0
	c14.1,0,25.6-11.5,25.6-25.6v0C273.9-52.4,262.5-63.8,248.3-63.8z M253.9-55.4c0.5,3.5-2.8,7.6-6.3,7.3
	C247.2-51.3,250.2-55.2,253.9-55.4z M260.5-31.8c-0.6,1.7-1.5,3.4-2.6,4.8c-0.4,0.6-0.9,1.2-1.4,1.7c-1,1-2.1,1.7-3.6,1.4
	c-0.6-0.1-1.3-0.3-1.9-0.6c-1.1-0.5-2.2-0.7-3.4-0.6c-0.9,0.1-1.6,0.4-2.4,0.7c-0.5,0.2-1.1,0.4-1.6,0.5c-1.1,0.2-2-0.2-2.8-0.9
	c-1.2-0.9-2-2.1-2.8-3.3c-1.3-2-2.2-4.2-2.8-6.5c-0.4-1.9-0.6-3.9-0.3-5.8c0.3-2,1.1-3.8,2.6-5.2c1.5-1.4,3.3-2.1,5.4-2.1
	c0.9,0,1.8,0.3,2.6,0.7c0.4,0.1,0.8,0.3,1.2,0.5c0.9,0.4,1.8,0.2,2.6-0.1c0.8-0.3,1.6-0.6,2.4-0.8c1.8-0.5,3.5-0.2,5.1,0.5
	c1.1,0.5,2,1.2,2.7,2.2c0,0,0.1,0.1,0.1,0.1c0,0,0,0.1,0,0.1c-0.5,0.5-1.1,0.9-1.5,1.4c-1.3,1.4-1.9,3-1.8,4.9
	c0.1,2.8,1.5,4.8,3.9,6.1C260.5-32.2,260.6-32,260.5-31.8z"/>
<path id="XMLID_998_" d="M402.3-63.8c-7.1,0-13.5,2.9-18.1,7.5c-4.6,4.6-7.5,11-7.5,18.1v0c0,14.1,11.5,25.6,25.6,25.6h0
	c14.1,0,25.6-11.5,25.6-25.6v0C427.9-52.4,416.5-63.8,402.3-63.8z M386.7-28.7c-0.5,0.3-1,0.6-1.6,0.9c-0.5,0.3-0.9,0.2-1.2-0.3
	c-1.4-2.4-2.3-4.9-2.6-7.7c-0.1-0.9-0.2-1.8-0.3-2.8c0.1-2,0.4-4,0.9-6c0.2-0.8,0.5-1,1.3-0.7c0.6,0.2,1.2,0.4,1.7,0.5
	c0.7,0.2,0.9,0.6,0.7,1.3c-0.5,1.7-0.8,3.4-0.7,5.2c0.1,2.8,0.8,5.4,2.1,7.9C387.6-29.5,387.5-29.2,386.7-28.7z M412.2-28.1
	c-0.4-0.4-0.8-0.8-1.2-1.2c-0.5-0.5-0.5-0.9-0.1-1.4c2.2-2.5,3.2-5.4,2.9-8.6c-0.3-4.8-3.8-9-8.5-10.2c-6.7-1.8-13.4,2.7-14.3,9.6
	c-0.5,3.5,0.5,6.5,2.8,9.2c0.6,0.7,0.6,1,0,1.6c-0.5,0.4-0.9,0.9-1.4,1.3c-0.4,0.4-0.8,0.4-1.2,0c-2.2-2.4-3.5-5.1-3.9-8.3
	c-0.6-4.4,0.5-8.4,3.3-11.8c2.5-3.1,5.8-5,9.7-5.5c6-0.8,10.9,1.3,14.6,6.2c1.7,2.2,2.6,4.7,2.9,7.5c0.1,0.5,0.1,1,0.1,1.4
	c-0.1,4.1-1.3,7.5-3.9,10.4C413.2-27.4,412.9-27.4,412.2-28.1z M420.9-28.2c-0.4,0.6-0.7,0.7-1.3,0.4c-0.6-0.3-1.2-0.7-1.7-1
	c-0.5-0.3-0.6-0.7-0.3-1.3c1.1-1.9,1.8-3.9,2.1-6.1c0.3-2.4,0.2-4.8-0.5-7.2c-0.2-0.8-0.1-1.1,0.7-1.3c0.6-0.2,1.2-0.4,1.7-0.5
	c0.7-0.2,1,0,1.2,0.6c0.6,2,0.9,4,0.9,5.6C423.6-34.8,422.7-31.4,420.9-28.2z"/>
</svg>
