<?xml version="1.0" encoding="utf-8"?>
<!-- Generator: Adobe Illustrator 19.0.0, SVG Export Plug-In . SVG Version: 6.00 Build 0)  -->
<svg version="1.1" id="Layer_1" xmlns="http://www.w3.org/2000/svg" xmlns:xlink="http://www.w3.org/1999/xlink" x="0px" y="0px"
	 viewBox="0 0 612 612" style="enable-background:new 0 0 612 612;" xml:space="preserve">
<style type="text/css">
	.st0{fill:none;stroke:#0A0A0A;stroke-width:20.9368;stroke-miterlimit:10;}
</style>
<g id="XMLID_4_">
	<path id="XMLID_307_" class="st0" d="M305.9,600.3h0.3c162.5,0,294.2-131.7,294.2-294.2V306c0-162.6-131.8-294.3-294.3-294.3h0
		C143.4,11.7,11.7,143.4,11.7,306v0.1C11.7,468.6,143.4,600.3,305.9,600.3z"/>
	<g id="instagram_12_">
		<path id="XMLID_310_" d="M306,182.3c40.3,0,45.1,0.2,61,0.9c14.7,0.7,22.7,3.1,28,5.2c7,2.7,12.1,6,17.4,11.3
			c5.3,5.3,8.6,10.3,11.3,17.4c2.1,5.3,4.5,13.3,5.2,28c0.7,15.9,0.9,20.7,0.9,61c0,40.3-0.2,45.1-0.9,61c-0.7,14.7-3.1,22.7-5.2,28
			c-2.7,7-6,12.1-11.3,17.4c-5.3,5.3-10.3,8.6-17.4,11.3c-5.3,2.1-13.3,4.5-28,5.2c-15.9,0.7-20.7,0.9-61,0.9s-45.1-0.2-61-0.9
			c-14.7-0.7-22.7-3.1-28-5.2c-7-2.7-12.1-6-17.4-11.3c-5.3-5.3-8.6-10.3-11.3-17.4c-2.1-5.3-4.5-13.3-5.2-28
			c-0.7-15.9-0.9-20.7-0.9-61c0-40.3,0.2-45.1,0.9-61c0.7-14.7,3.1-22.7,5.2-28c2.7-7,6-12.1,11.3-17.4c5.3-5.3,10.3-8.6,17.4-11.3
			c5.3-2.1,13.3-4.5,28-5.2C260.9,182.4,265.7,182.3,306,182.3 M306,155.1c-41,0-46.1,0.2-62.2,0.9c-16.1,0.7-27,3.3-36.6,7
			c-9.9,3.9-18.3,9-26.7,17.4c-8.4,8.4-13.6,16.8-17.4,26.7c-3.7,9.6-6.3,20.6-7,36.6c-0.7,16.1-0.9,21.2-0.9,62.2
			c0,41,0.2,46.1,0.9,62.2c0.7,16.1,3.3,27,7,36.6c3.9,9.9,9,18.3,17.4,26.7s16.8,13.6,26.7,17.4c9.6,3.7,20.6,6.3,36.6,7
			c16.1,0.7,21.2,0.9,62.2,0.9s46.1-0.2,62.2-0.9c16.1-0.7,27-3.3,36.6-7c9.9-3.9,18.3-9,26.7-17.4c8.4-8.4,13.6-16.8,17.4-26.7
			c3.7-9.6,6.3-20.6,7-36.6c0.7-16.1,0.9-21.2,0.9-62.2s-0.2-46.1-0.9-62.2c-0.7-16.1-3.3-27-7-36.6c-3.9-9.9-9-18.3-17.4-26.7
			c-8.4-8.4-16.8-13.6-26.7-17.4c-9.6-3.7-20.6-6.3-36.6-7C352.1,155.2,347,155.1,306,155.1L306,155.1z"/>
		<path id="XMLID_315_" d="M306,228.5c-42.8,0-77.5,34.7-77.5,77.5s34.7,77.5,77.5,77.5s77.5-34.7,77.5-77.5S348.8,228.5,306,228.5z
			 M306,356.3c-27.8,0-50.3-22.5-50.3-50.3c0-27.8,22.5-50.3,50.3-50.3s50.3,22.5,50.3,50.3C356.3,333.8,333.8,356.3,306,356.3z"/>
		<circle id="XMLID_318_" cx="386.6" cy="225.4" r="18.1"/>
	</g>
</g>
</svg>
