<?xml version="1.0" encoding="UTF-8" standalone="no"?>
<!DOCTYPE svg PUBLIC "-//W3C//DTD SVG 1.1//EN" "http://www.w3.org/Graphics/SVG/1.1/DTD/svg11.dtd">
<svg version="1.1" xmlns="http://www.w3.org/2000/svg" xmlns:xlink="http://www.w3.org/1999/xlink" preserveAspectRatio="xMidYMid meet" viewBox="0 0 640 640" width="50" height="50"><defs><path d="M506.9 293.95C506.9 403.34 424.49 492.16 322.98 492.16C221.46 492.16 139.05 403.34 139.05 293.95C139.05 184.55 221.46 95.73 322.98 95.73C424.49 95.73 506.9 184.55 506.9 293.95Z" id="b3fiIKEnQK"></path><path d="M97.38 87.51C-22.7 204.19 -22.7 393.38 97.38 510.09C217.42 626.79 412.1 626.79 532.17 510.09C652.2 393.39 652.2 204.2 532.17 87.51C412.1 -29.15 217.45 -29.19 97.38 87.51ZM241 448.02C221.43 448.02 205.57 432.62 205.57 413.59C205.57 390.63 205.57 207 205.57 184.04C205.57 165.04 221.43 149.61 241 149.61C260.57 149.61 276.45 165.04 276.45 184.04C276.45 199.35 276.45 275.86 276.45 413.59C265.86 436.54 254.05 448.02 241 448.02ZM388.52 448.02C368.96 448.02 353.09 432.62 353.09 413.59C353.09 390.63 353.09 207 353.09 184.04C353.09 165.04 368.96 149.61 388.52 149.61C408.07 149.61 423.95 165.04 423.95 184.04C423.95 199.35 423.95 275.86 423.95 413.59C413.37 436.54 401.56 448.02 388.52 448.02Z" id="g3fB9TCSAh"></path></defs><g><g><g><use xlink:href="#b3fiIKEnQK" opacity="1" fill="#ffffff" fill-opacity="1"></use></g><g><use xlink:href="#g3fB9TCSAh" opacity="1" fill="#000000" fill-opacity="1"></use><g><use xlink:href="#g3fB9TCSAh" opacity="1" fill-opacity="0" stroke="#000000" stroke-width="1" stroke-opacity="0"></use></g></g></g></g></svg>