<?xml version="1.0" encoding="UTF-8" standalone="no"?>
<!DOCTYPE svg PUBLIC "-//W3C//DTD SVG 1.1//EN" "http://www.w3.org/Graphics/SVG/1.1/DTD/svg11.dtd">
<svg version="1.1" xmlns="http://www.w3.org/2000/svg" xmlns:xlink="http://www.w3.org/1999/xlink" preserveAspectRatio="xMidYMid meet" viewBox="0 0 640 640" width="16" height="16"><defs><path d="M333.69 500.73C240.99 500.73 165.74 425.61 165.74 333.06C165.74 240.53 240.99 165.4 333.69 165.4C426.38 165.4 501.63 240.53 501.63 333.06C501.63 425.61 426.38 500.73 333.69 500.73Z" id="b1tsTlVE7V"></path><path d="M333.69 619.4C490.25 619.4 617.62 485.09 617.62 320C617.62 154.91 490.25 20.6 333.69 20.6C177.12 20.6 49.76 154.91 49.76 320C49.76 485.09 177.12 619.4 333.69 619.4ZM274.53 444.75C272.6 444.75 270.63 444.24 268.87 443.23C265.06 441.04 262.71 436.85 262.71 432.28C262.71 409.82 262.71 230.18 262.71 207.73C262.71 203.15 265.06 198.96 268.87 196.77C272.62 194.6 277.31 194.74 280.93 197.24C297.5 208.46 430 298.28 446.56 309.51C449.93 311.8 451.99 315.76 451.99 320C451.99 324.24 449.93 328.2 446.56 330.49C413.43 352.94 297.5 431.54 280.93 442.76C278.99 444.1 276.75 444.75 274.53 444.75Z" id="dNQTlw1mJ"></path><path d="M333.69 619.4C490.25 619.4 617.62 485.09 617.62 320C617.62 154.91 490.25 20.6 333.69 20.6C177.12 20.6 49.76 154.91 49.76 320C49.76 485.09 177.12 619.4 333.69 619.4ZM274.53 444.75C272.6 444.75 270.63 444.24 268.87 443.23C265.06 441.04 262.71 436.85 262.71 432.28C262.71 409.82 262.71 230.18 262.71 207.73C262.71 203.15 265.06 198.96 268.87 196.77C272.62 194.6 277.31 194.74 280.93 197.24C297.5 208.46 430 298.28 446.56 309.51C449.93 311.8 451.99 315.76 451.99 320C451.99 324.24 449.93 328.2 446.56 330.49C413.43 352.94 297.5 431.54 280.93 442.76C278.99 444.1 276.75 444.75 274.53 444.75Z" id="b4vENBa7zN"></path></defs><g><g><g><use xlink:href="#b1tsTlVE7V" opacity="1" fill="#ffffff" fill-opacity="1"></use><g><use xlink:href="#b1tsTlVE7V" opacity="1" fill-opacity="0" stroke="#000000" stroke-width="1" stroke-opacity="0"></use></g></g><g><use xlink:href="#dNQTlw1mJ" opacity="1" fill="#000000" fill-opacity="1"></use><g><use xlink:href="#dNQTlw1mJ" opacity="1" fill-opacity="0" stroke="#000000" stroke-width="1" stroke-opacity="0"></use></g></g><g><use xlink:href="#b4vENBa7zN" opacity="1" fill="#000000" fill-opacity="0"></use><g><use xlink:href="#b4vENBa7zN" opacity="1" fill-opacity="0" stroke="#000000" stroke-width="1" stroke-opacity="0"></use></g></g></g></g></svg>