<?xml version="1.0" encoding="utf-8"?>
<!-- Generator: Adobe Illustrator 19.0.0, SVG Export Plug-In . SVG Version: 6.00 Build 0)  -->
<svg version="1.1" id="Layer_1" xmlns="http://www.w3.org/2000/svg" xmlns:xlink="http://www.w3.org/1999/xlink" x="0px" y="0px"
	 viewBox="0 0 612 612" style="enable-background:new 0 0 612 612;" xml:space="preserve">
<style type="text/css">
	.st0{fill:none;stroke:#0A0A0A;stroke-width:20.9368;stroke-miterlimit:10;}
</style>
<g id="XMLID_12_">
	<path id="XMLID_306_" class="st0" d="M305.9,600.3h0.3c162.5,0,294.2-131.7,294.2-294.2V306c0-162.6-131.8-294.3-294.3-294.3h0
		C143.4,11.7,11.7,143.4,11.7,306v0.1C11.7,468.6,143.4,600.3,305.9,600.3z"/>
	<path id="twitter_12_" d="M478,208.8c-11.9,5.3-24.7,8.9-38.1,10.5c13.7-8.2,24.2-21.2,29.2-36.7c-12.8,7.6-27,13.1-42.2,16.1
		c-12.1-12.9-29.4-21-48.5-21c-36.7,0-66.4,29.7-66.4,66.4c0,5.2,0.6,10.3,1.7,15.1c-55.2-2.8-104.1-29.2-136.9-69.4
		c-5.7,9.8-9,21.2-9,33.4c0,23,11.7,43.4,29.5,55.3c-10.9-0.3-21.1-3.3-30.1-8.3c0,0.3,0,0.6,0,0.8c0,32.2,22.9,59,53.3,65.1
		c-5.6,1.5-11.4,2.3-17.5,2.3c-4.3,0-8.4-0.4-12.5-1.2c8.5,26.4,33,45.6,62,46.1c-22.7,17.8-51.4,28.4-82.5,28.4
		c-5.4,0-10.6-0.3-15.8-0.9c29.4,18.8,64.3,29.8,101.8,29.8c122.1,0,188.9-101.2,188.9-188.9c0-2.9-0.1-5.7-0.2-8.6
		C457.8,233.8,469.1,222.1,478,208.8z"/>
</g>
</svg>
