<?xml version="1.0" encoding="utf-8"?>
<!-- Generator: Adobe Illustrator 19.0.0, SVG Export Plug-In . SVG Version: 6.00 Build 0)  -->
<svg version="1.1" id="Layer_1" xmlns="http://www.w3.org/2000/svg" xmlns:xlink="http://www.w3.org/1999/xlink" x="0px" y="0px"
	 viewBox="0 0 612 612" style="enable-background:new 0 0 612 612;" xml:space="preserve">
<style type="text/css">
	.st0{fill:none;stroke:#0A0A0A;stroke-width:20.9368;stroke-miterlimit:10;}
</style>
<g id="XMLID_2_">
	<path id="XMLID_308_" class="st0" d="M305.9,600.3h0.3c162.5,0,294.2-131.7,294.2-294.2V306c0-162.6-131.8-294.3-294.3-294.3h0
		C143.4,11.7,11.7,143.4,11.7,306v0.1C11.7,468.6,143.4,600.3,305.9,600.3z"/>
	<path id="youtube_x5F_alt_12_" d="M465.2,231.9c-4-17.3-18.1-30-35.1-31.9c-40.2-4.5-80.9-4.5-121.5-4.5c-40.5,0-81.3,0-121.5,4.5
		c-17,1.9-31.1,14.6-35.1,31.9c-5.7,24.6-5.7,51.4-5.7,76.7c0,25.3,0,52.1,5.6,76.7c4,17.3,18.1,30,35.1,31.9
		c40.2,4.5,80.9,4.5,121.5,4.5c40.5,0,81.3,0,121.5-4.5c17-1.9,31.1-14.6,35.1-31.9c5.6-24.6,5.7-51.4,5.7-76.7
		C470.9,283.3,470.9,256.5,465.2,231.9z M274.6,352.8v-90l85.8,45L274.6,352.8z"/>
</g>
</svg>
