<?xml version="1.0" encoding="utf-8"?>
<!-- Generator: Adobe Illustrator 19.0.0, SVG Export Plug-In . SVG Version: 6.00 Build 0)  -->
<svg version="1.1" id="Layer_1" xmlns="http://www.w3.org/2000/svg" xmlns:xlink="http://www.w3.org/1999/xlink" x="0px" y="0px"
	 viewBox="0 0 53.3 53.3" enable-background="new 0 0 53.3 53.3" xml:space="preserve">
<path id="XMLID_951_" d="M27.2,1.6c-7.1,0-13.5,2.9-18.1,7.5c-4.6,4.6-7.5,11-7.5,18.1v0c0,14.1,11.5,25.6,25.6,25.6h0
	c14.1,0,25.6-11.5,25.6-25.6v0C52.8,13.1,41.4,1.6,27.2,1.6z M41.4,37.3L37,37.4c0,0-0.9,0.2-2.2-0.6c-1.6-1.1-3.1-4-4.3-3.6
	c-1.2,0.4-1.2,3-1.2,3s0,0.6-0.3,0.9c-0.3,0.3-0.9,0.4-0.9,0.4h-1.9c0,0-4.3,0.3-8.1-3.7c-4.1-4.3-7.8-12.8-7.8-12.8s-0.2-0.6,0-0.8
	c0.3-0.3,0.9-0.3,0.9-0.3l4.6,0c0,0,0.4,0.1,0.8,0.3c0.3,0.2,0.4,0.5,0.4,0.5s0.8,1.9,1.8,3.6c1.9,3.3,2.8,4.1,3.5,3.7
	c1-0.5,0.7-4.7,0.7-4.7s0-1.5-0.5-2.2c-0.4-0.5-1.1-0.7-1.4-0.7c-0.3,0,0.2-0.6,0.7-0.9c0.8-0.4,2.3-0.4,4.1-0.4
	c1.4,0,1.8,0.1,2.3,0.2c1.6,0.4,1.1,1.9,1.1,5.5c0,1.1-0.2,2.8,0.6,3.3c0.4,0.2,1.2,0,3.4-3.7c1-1.8,1.8-3.8,1.8-3.8
	s0.2-0.4,0.4-0.5c0.3-0.2,0.6-0.1,0.6-0.1l4.9,0c0,0,1.5-0.2,1.7,0.5c0.3,0.7-0.6,2.3-2.5,5c-3.3,4.4-3.6,4-0.9,6.5
	c2.6,2.4,3.1,3.6,3.2,3.7C43.7,37.2,41.4,37.3,41.4,37.3z"/>
</svg>
