<?xml version="1.0" encoding="utf-8"?>
<!-- Generator: Adobe Illustrator 19.0.0, SVG Export Plug-In . SVG Version: 6.00 Build 0)  -->
<svg version="1.1" id="Layer_1" xmlns="http://www.w3.org/2000/svg" xmlns:xlink="http://www.w3.org/1999/xlink" x="0px" y="0px"
	 viewBox="0 0 612 612" style="enable-background:new 0 0 612 612;" xml:space="preserve">
<style type="text/css">
	.st0{fill:none;stroke:#0A0A0A;stroke-width:20.9368;stroke-miterlimit:10;}
	.st1{fill-rule:evenodd;clip-rule:evenodd;}
</style>
<g id="XMLID_5_">
	<path id="XMLID_304_" class="st0" d="M305.9,600.3h0.3c162.5,0,294.2-131.7,294.2-294.2V306c0-162.6-131.8-294.3-294.3-294.3h0
		C143.4,11.7,11.7,143.4,11.7,306v0.1C11.7,468.6,143.4,600.3,305.9,600.3z"/>
	<path id="vk_x5F_alt_12_" class="st1" d="M295,421.9h22.3c0,0,6.7-0.7,10.2-4.5c3.2-3.4,3.1-9.8,3.1-9.8s-0.4-29.9,13.5-34.3
		c13.7-4.3,31.3,28.9,49.9,41.7c14.1,9.7,24.8,7.6,24.8,7.6l49.9-0.7c0,0,26.1-1.6,13.7-22.1c-1-1.7-7.2-15.2-37.1-42.9
		c-31.3-29-27.1-24.3,10.6-74.5c22.9-30.6,32.1-49.2,29.2-57.2c-2.7-7.6-19.6-5.6-19.6-5.6l-56.1,0.3c0,0-4.2-0.6-7.2,1.3
		c-3,1.8-5,6-5,6s-8.9,23.6-20.7,43.8c-25,42.4-35,44.7-39.1,42c-9.5-6.1-7.1-24.7-7.1-37.8c0-41.1,6.2-58.3-12.1-62.7
		c-6.1-1.5-10.6-2.4-26.2-2.6c-20-0.2-37,0.1-46.6,4.8c-6.4,3.1-11.3,10.1-8.3,10.5c3.7,0.5,12.1,2.3,16.6,8.3
		c5.8,7.8,5.6,25.4,5.6,25.4s3.3,48.4-7.7,54.4c-7.6,4.1-17.9-4.3-40.2-42.8c-11.4-19.7-20-41.5-20-41.5s-1.7-4.1-4.6-6.3
		c-3.6-2.6-8.6-3.5-8.6-3.5l-53.3,0.3c0,0-8,0.2-10.9,3.7c-2.6,3.1-0.2,9.5-0.2,9.5s41.8,97.7,89,146.9
		C245.8,424.8,295,421.9,295,421.9L295,421.9L295,421.9z"/>
</g>
</svg>
